<svg width="51" height="48" viewBox="0 0 51 48" fill="none" xmlns="http://www.w3.org/2000/svg">
<path d="M33.4188 18.0339H17.936V47.8657H33.4188V18.0339Z" fill="#DFF900"/>
<path d="M21.8965 22.515L25.7429 21.282H27.4981V35.7526H25.0135V23.8507L22.4207 24.57L21.8965 22.515Z" fill="#0833C5"/>
<path d="M43.9041 43.105H7.66189C3.88951 43.105 0.82373 40.034 0.82373 36.255V10.4306C0.82373 6.65165 3.88951 3.58057 7.66189 3.58057H43.9041C47.6765 3.58057 50.7423 6.65165 50.7423 10.4306V36.255C50.7423 40.034 47.6765 43.105 43.9041 43.105ZM7.66189 5.8639C5.14887 5.8639 3.10312 7.91319 3.10312 10.4306V36.255C3.10312 38.7724 5.14887 40.8217 7.66189 40.8217H43.9041C46.4172 40.8217 48.4629 38.7724 48.4629 36.255V10.4306C48.4629 7.91319 46.4172 5.8639 43.9041 5.8639H7.66189Z" fill="#0833C5"/>
<path d="M49.6026 12.7881H1.96338V15.0714H49.6026V12.7881Z" fill="#0833C5"/>
<path d="M14.2491 0.526611H11.9697V9.44302H14.2491V0.526611Z" fill="#0833C5"/>
<path d="M26.9227 0.526611H24.6433V9.44302H26.9227V0.526611Z" fill="#0833C5"/>
<path d="M39.4307 0.526611H37.1514V9.44302H39.4307V0.526611Z" fill="#0833C5"/>
</svg>
