<svg width="58" height="56" viewBox="0 0 58 56" fill="none" xmlns="http://www.w3.org/2000/svg">
    <path d="M27.7481 25.0317L33.1577 30.4496L57.9757 5.59363L52.5661 0.175751L27.7481 25.0317Z" fill="#0ADBAB"/>
    <path d="M33.1536 0.167079L27.744 5.58496L52.562 30.4409L57.9716 25.0231L33.1536 0.167079Z" fill="#0ADBAB"/>
    <path d="M11.4982 55.36C5.54321 55.36 0.700195 50.5096 0.700195 44.5454C0.700195 38.5813 5.54321 33.7308 11.4982 33.7308C17.4533 33.7308 22.2963 38.5813 22.2963 44.5454C22.2963 50.5096 17.4533 55.36 11.4982 55.36ZM11.4982 36.1713C6.88613 36.1713 3.13082 39.9324 3.13082 44.5515C3.13082 49.1707 6.88613 52.9318 11.4982 52.9318C16.1104 52.9318 19.8657 49.1707 19.8657 44.5515C19.8657 39.9263 16.1104 36.1713 11.4982 36.1713Z" fill="#0833C5"/>
    <path d="M41.1762 55.36C35.2212 55.36 30.3782 50.5096 30.3782 44.5454C30.3782 38.5813 35.2212 33.7308 41.1762 33.7308C47.1313 33.7308 51.9743 38.5813 51.9743 44.5454C51.9743 50.5096 47.1313 55.36 41.1762 55.36ZM41.1762 36.1713C36.5641 36.1713 32.8088 39.9324 32.8088 44.5515C32.8088 49.1707 36.5641 52.9318 41.1762 52.9318C45.7883 52.9318 49.5437 49.1707 49.5437 44.5515C49.5437 39.9263 45.7883 36.1713 41.1762 36.1713Z" fill="#0833C5"/>
    <path d="M32.8088 44.3568H30.3782C30.3782 42.1233 28.5674 40.3097 26.3373 40.3097C24.1072 40.3097 22.2964 42.1233 22.2964 44.3568H19.8657C19.8657 40.7844 22.7703 37.8754 26.3373 37.8754C29.9042 37.8754 32.8088 40.7844 32.8088 44.3568Z" fill="#0833C5"/>
    <path d="M3.95125 33.8526H1.52063V21.9791C1.52063 16.5383 5.93829 12.1139 11.3707 12.1139V14.5482C7.28121 14.5482 3.95125 17.8833 3.95125 21.9791V33.8526Z" fill="#0833C5"/>
    <path d="M51.9742 33.8526H49.5436V21.9791C49.5436 17.8833 46.2137 14.5482 42.1241 14.5482V12.1139C47.5566 12.1139 51.9742 16.5383 51.9742 21.9791V33.8526Z" fill="#0833C5"/>
</svg>
