<svg width="105" height="10" viewBox="0 0 105 10" fill="none" xmlns="http://www.w3.org/2000/svg">
<path d="M6.21253 9.60522C3.28972 8.02899 1.37561 5.97197 1.29662 5.88677L0.743652 5.28428L1.29662 4.68784C1.37561 4.60263 3.24112 2.59432 6.10924 1.02417L6.95387 2.57606C5.25851 3.50111 3.93384 4.61483 3.20466 5.28428C3.94599 5.96589 5.30714 7.11002 7.04503 8.04724L6.21253 9.60522Z" fill="#0ADBAB"/>
<path d="M18.9369 9.65939L18.1105 8.09532C19.9031 7.14592 21.2946 5.97744 22.0481 5.28365C21.3067 4.60203 19.9456 3.45787 18.2077 2.52673L19.0463 0.96875C21.9691 2.54499 23.8771 4.59592 23.9561 4.68721L24.5091 5.2897L23.9561 5.89224C23.8832 5.97135 21.9205 8.07707 18.9369 9.65939Z" fill="#0ADBAB"/>
<path d="M13.4132 0.71936H11.6449V9.83594H13.4132V0.71936Z" fill="#0ADBAB"/>
<path d="M16.0619 2.26437L8.14258 6.75977L9.01451 8.30051L16.9339 3.80511L16.0619 2.26437Z" fill="#0ADBAB"/>
<path d="M9.01244 2.27345L8.1405 3.81421L16.0598 8.30961L16.9318 6.76885L9.01244 2.27345Z" fill="#0ADBAB"/>
<path d="M26.3928 7.69475L30.537 2.86257H26.5204V1.40808H32.6699V2.66782L28.5257 7.5H32.6699V8.95453H26.3928V7.69475Z" fill="#020D47"/>
<path d="M34.2436 1.40698H37.689C38.6491 1.40698 39.3905 1.67473 39.8827 2.17378C40.302 2.59371 40.5268 3.19013 40.5268 3.92044C40.5268 5.13763 39.8705 5.90447 38.9104 6.25746L40.7516 8.95352H38.8132L37.1786 6.53742H35.8964V8.95352H34.2375V1.40698H34.2436ZM37.5797 5.07069C38.3878 5.07069 38.8497 4.6386 38.8497 3.98132C38.8497 3.26927 38.3575 2.9041 37.5493 2.9041H35.9025V5.07069H37.5797Z" fill="#020D47"/>
<path d="M42.0276 1.40698H47.7092V2.88585H43.6744V4.41946H47.2291V5.89832H43.6744V7.48067H47.7639V8.95953H42.0276V1.40698Z" fill="#020D47"/>
<path d="M49.2467 1.40698H50.778L54.3085 6.05052V1.40698H55.9431V8.95352H54.5333L50.8813 4.1578V8.95352H49.2467V1.40698Z" fill="#020D47"/>
<path d="M57.8268 1.40698H59.4857V8.95352H57.8268V1.40698Z" fill="#020D47"/>
<path d="M61.3696 1.40698H67.0512V2.88585H63.0164V4.41946H66.5712V5.89832H63.0164V7.48067H67.1059V8.95953H61.3696V1.40698Z" fill="#020D47"/>
<path d="M68.3455 7.2312H70.0894V8.95352H68.3455V7.2312Z" fill="#020D47"/>
<path d="M71.6632 1.40698H74.6043C76.9741 1.40698 78.6087 3.0319 78.6087 5.18023C78.6087 7.30423 76.9741 8.95352 74.6043 8.95352H71.6632V1.40698ZM74.6043 7.45637C75.9593 7.45637 76.8769 6.54348 76.8769 5.18023C76.8769 3.84133 75.9593 2.9041 74.6043 2.9041H73.3221V7.45637H74.6043Z" fill="#020D47"/>
<path d="M80.0852 1.40698H83.166C84.9647 1.40698 86.0524 2.47199 86.0524 4.03607C86.0524 5.78274 84.6973 6.68957 83.008 6.68957H81.7502V8.95352H80.0913V1.40698H80.0852ZM83.0566 5.21069C83.883 5.21069 84.3692 4.71771 84.3692 4.04826C84.3692 3.30577 83.8527 2.9041 83.0262 2.9041H81.7441V5.21069H83.0566Z" fill="#020D47"/>
<path d="M85.9613 7.2312H87.7053V8.95352H85.9613V7.2312Z" fill="#020D47"/>
<path d="M88.9996 5.72184V1.40698H90.6585V5.67315C90.6585 6.90249 91.2723 7.54151 92.281 7.54151C93.2897 7.54151 93.9034 6.92685 93.9034 5.72794V1.40698H95.5623V5.66709C95.5623 7.95538 94.2801 9.07516 92.2567 9.07516C90.2392 9.07516 88.9996 7.94319 88.9996 5.72184Z" fill="#020D47"/>
<path d="M99.5729 1.35229H101.104L104.331 8.95355H102.599L101.912 7.2617H98.7282L98.0416 8.95355H96.3523L99.5729 1.35229ZM101.317 5.79498L100.314 3.34844L99.3116 5.79498H101.317Z" fill="#020D47"/>
</svg>
