<svg width="45" height="34" viewBox="0 0 45 34" fill="none" xmlns="http://www.w3.org/2000/svg">
<path d="M0.671733 18.4773L0.671615 18.4766C0.1898 15.6217 0.72295 13.0558 2.26314 10.7474C2.67749 10.1394 3.0648 9.63646 3.43284 9.23337C3.81066 8.81956 4.69418 7.93092 6.10068 6.5575L11.9474 0.848299L21.6857 10.36L15.6429 16.2607L15.2766 16.6183L15.6428 16.9761L21.7259 22.9185C20.2169 24.3661 19.0145 25.3823 18.1097 25.9805L18.109 25.9809C15.6944 27.5831 12.9819 28.1292 9.93551 27.6099C7.54731 27.1976 5.5183 26.1722 3.8337 24.5273C2.11864 22.8525 1.06711 20.8405 0.671733 18.4773Z" stroke="white"/>
<path d="M44.173 14.8007L44.1732 14.8019C44.6575 17.654 44.1244 20.2197 42.5817 22.5281C42.1673 23.1362 41.78 23.6392 41.4119 24.0423C41.0341 24.4561 40.1506 25.3448 38.7441 26.7182L32.8973 32.4276L23.159 22.9181L29.2019 17.0148L29.5681 16.6571L29.2019 16.2994L23.1189 10.3594C24.6279 8.91178 25.8303 7.89553 26.7351 7.29739L26.7358 7.29692C29.1502 5.69484 31.8626 5.14872 34.9088 5.66787C37.2972 6.08012 39.3264 7.10553 41.0111 8.75065C42.7261 10.4254 43.7777 12.4375 44.173 14.8007Z" stroke="white"/>
</svg>
