<svg width="61" height="33" viewBox="0 0 61 33" fill="none" xmlns="http://www.w3.org/2000/svg">
<path d="M6.36381 0.724609C8.32103 0.724609 10.4224 1.10872 11.6058 1.66676V3.76848C10.87 2.99302 8.76862 2.47846 6.36381 2.47846C4.13349 2.47846 2.65419 3.13072 2.65419 4.1091C2.65419 6.65291 12.1293 4.94979 12.1293 9.02278C12.1293 11.2477 9.94447 12.7334 6.68243 12.7334C4.17901 12.7334 1.78938 12.2623 0.696973 11.5448V9.37065C1.50869 10.3273 3.89832 10.9723 6.68243 10.9723C8.7231 10.9723 10.0886 10.3345 10.0886 9.35615C10.0886 6.92106 0.613525 8.31979 0.613525 4.28304C0.613525 2.15233 2.90454 0.724609 6.36381 0.724609Z" fill="white"/>
<path d="M14.3145 4.08594H16.302V9.56518C16.302 10.4204 17.1744 11.1307 18.5475 11.1307C19.8523 11.1307 20.9219 9.9928 21.3846 8.26785V4.08594H23.3722V12.428H21.3846V10.2537C20.9371 11.7467 19.6019 12.7324 17.8647 12.7324C15.6951 12.7324 14.3145 11.3771 14.3145 9.56518V4.08594Z" fill="white"/>
<path d="M29.8956 3.73828C31.3294 3.73828 32.7024 4.40507 33.3397 5.41251L33.37 4.02819H35.2817V11.5296C35.2817 14.2693 33.1349 16.0957 29.9107 16.0957C28.4466 16.0957 26.9294 15.6681 26.148 15.0448V13.2473C26.8459 13.9939 28.348 14.4795 29.888 14.4795C31.8604 14.4795 33.2335 13.5228 33.3093 12.0877L33.3776 10.8701C32.6645 11.979 31.1928 12.7255 29.7287 12.7255C27.0659 12.7255 25.2832 10.9136 25.2832 8.1884C25.2908 5.51398 27.1342 3.73828 29.8956 3.73828ZM33.3776 7.93473C33.3776 6.31848 32.1487 5.23857 30.3052 5.23857C28.477 5.23857 27.2632 6.39821 27.2632 8.14492C27.2632 9.95685 28.477 11.16 30.3052 11.16C32.1562 11.16 33.3776 10.0656 33.3776 8.40584V7.93473Z" fill="white"/>
<path d="M43.6118 7.11635H44.7421C44.7269 6.03637 43.7104 5.3043 42.3373 5.3043C40.729 5.3043 39.1056 5.86966 38.0815 6.7177V5.05786C39.0677 4.26781 40.8883 3.73145 42.5269 3.73145C45.0304 3.73145 46.4945 5.22457 46.5096 7.34104L46.4945 12.422H44.8028L44.7573 10.581C44.378 11.8277 42.7166 12.6685 40.6152 12.6685C38.5898 12.6685 37.2546 11.6755 37.2698 10.2041C37.3001 8.34854 39.978 7.11635 43.6118 7.11635ZM44.5524 8.44277H43.7559C41.0021 8.44277 39.1511 9.0951 39.1511 10.0229C39.1511 12.0451 44.5524 11.2261 44.5524 8.44277Z" fill="white"/>
<path d="M48.8542 4.04268H50.8418V5.7024C51.1756 4.57901 52.3894 3.73828 53.8687 3.73828C54.4225 3.73828 55.1432 3.9847 55.6666 4.33259V6.1445C55.2721 5.79662 54.4225 5.39799 53.5653 5.39799C52.2604 5.39799 51.1756 6.26771 50.8418 7.42009V12.4282H48.8542V4.04268Z" fill="white"/>
<path d="M0.978027 16.9595H7.411C11.2495 16.9595 13.7985 19.199 13.7985 22.6633C13.7985 26.0407 11.2495 28.3672 7.411 28.3672H0.978027V16.9595ZM7.41859 26.6857C10.013 26.6857 11.7351 25.1058 11.7351 22.7431C11.7351 20.2934 10.013 18.6482 7.41859 18.6482H3.06419V26.6857H7.41859Z" fill="white"/>
<path d="M15.7026 17.93L17.1667 16.5312L18.5778 17.8793L17.1136 19.278L15.7026 17.93ZM16.1502 28.3735V19.9883H18.1378V28.3735H16.1502Z" fill="white"/>
<path d="M24.7301 19.6846C26.1639 19.6846 27.537 20.3514 28.1742 21.3588L28.2045 19.9745H30.1162V27.4759C30.1162 30.2156 27.9694 32.042 24.7453 32.042C23.2812 32.042 21.764 31.6144 20.9826 30.9911V29.1936C21.6805 29.9401 23.1826 30.4257 24.7225 30.4257C26.6949 30.4257 28.068 29.469 28.1438 28.034L28.2197 26.8164C27.5066 27.9253 26.0349 28.6718 24.5708 28.6718C21.9081 28.6718 20.1254 26.8598 20.1254 24.1347C20.133 21.4603 21.9764 19.6846 24.7301 19.6846ZM28.2197 23.881C28.2197 22.2648 26.9908 21.1849 25.1473 21.1849C23.3191 21.1849 22.1053 22.3445 22.1053 24.0912C22.1053 25.9031 23.3191 27.1063 25.1473 27.1063C26.9983 27.1063 28.2197 26.0119 28.2197 24.3521V23.881Z" fill="white"/>
<path d="M32.1797 17.93L33.6438 16.5312L35.0548 17.8793L33.5907 19.278L32.1797 17.93ZM32.6197 28.3735V19.9883H34.6072V28.3735H32.6197Z" fill="white"/>
<path d="M38.5447 19.9593V17.5674H40.5323V19.9593H45.0081V21.5105H40.5323V25.8812C40.5323 26.6133 41.3592 27.0989 42.5881 27.0989C43.6729 27.0989 44.7198 26.7655 45.2129 26.2581V27.918C44.5908 28.3601 43.415 28.6646 42.2695 28.6646C40.0392 28.6646 38.5447 27.5411 38.5447 25.8305V21.5105H36.4585L36.4434 19.9593H38.5447Z" fill="white"/>
<path d="M53.155 23.0613H54.2853C54.2701 21.9814 53.2536 21.2494 51.8805 21.2494C50.2723 21.2494 48.6488 21.8147 47.6247 22.6627V21.003C48.6109 20.2131 50.4316 19.6768 52.0702 19.6768C54.5736 19.6768 56.0377 21.1697 56.0529 23.286L56.0377 28.3664H54.346L54.3005 26.5255C53.9212 27.7721 52.2598 28.6128 50.1585 28.6128C48.133 28.6128 46.7978 27.6199 46.813 26.1487C46.8433 24.2933 49.5212 23.0613 53.155 23.0613ZM54.0956 24.3876H53.2991C50.5453 24.3876 48.6943 25.0398 48.6943 25.9675C48.6943 27.9895 54.0956 27.1706 54.0956 24.3876Z" fill="white"/>
<path d="M60.385 16.9595V28.374H58.3975V16.9595H60.385Z" fill="white"/>
</svg>
