<svg width="110" height="78" viewBox="0 0 110 78" fill="none" xmlns="http://www.w3.org/2000/svg">
<path d="M33.966 68.9377L32.0121 67.4606C32.2632 67.1235 38.3637 59.1557 51.067 51.9725C62.7535 45.3654 82.4637 38.2618 109.989 41.9393L109.665 44.3664C82.8741 40.787 63.7273 47.6515 52.3838 54.0441C40.0787 60.976 34.0211 68.858 33.966 68.9377Z" fill="#DFF900"/>
<path d="M43.9253 73.277L41.9714 71.7999C42.1858 71.518 47.3308 64.7944 58.0312 58.7451C67.8679 53.186 84.4605 47.2041 107.625 50.2992L107.301 52.7264C84.8709 49.7354 68.8418 55.4722 59.3419 60.8167C49.0458 66.6148 43.9743 73.2096 43.9253 73.277Z" fill="#DFF900"/>
<path d="M54.9747 77.316L53.0209 75.8389C53.1862 75.6183 57.1614 70.4209 65.4179 65.7567C73.0006 61.4725 85.7774 56.8635 103.607 59.2477L103.283 61.6747C70.5016 57.2986 55.1279 77.1199 54.9747 77.316Z" fill="#DFF900"/>
<path d="M56.4631 51.2616C48.127 40.7441 36.4527 35.5038 21.7344 35.6815C10.6604 35.8164 1.93225 39.1444 1.8465 39.1751L0.958374 36.889C1.32587 36.748 10.1214 33.3832 21.618 33.2299C36.9182 33.0277 49.6582 38.7338 58.3741 49.7354L56.4631 51.2616Z" fill="#DFF900"/>
<path d="M48.1025 55.0799C32.7777 36.1412 3.83706 46.2235 3.54306 46.3277L2.71619 44.017C3.02244 43.9067 33.5801 33.236 50.0073 53.5354L48.1025 55.0799Z" fill="#DFF900"/>
<path d="M40.7035 61.3254C28.0921 45.4145 6.27486 53.6028 6.05436 53.6825L5.17236 51.3964C5.40511 51.3044 28.8822 42.4603 42.6267 59.7993L40.7035 61.3254Z" fill="#DFF900"/>
<path d="M80.718 31.6732H72.6697L66.8387 18.0239L49.3825 8.86094L31.9262 18.0239L26.0952 31.6732H18.047L26.2423 12.4832L49.3825 0.335449L72.5228 12.4832L80.718 31.6732ZM74.2806 29.2216H77.0001L70.6056 14.2484L49.3764 3.09965L28.1471 14.2484L21.7526 29.2216H24.4721L30.0091 16.2587L49.3764 6.09061L68.7497 16.2526L74.2806 29.2216Z" fill="#0833C5"/>
<path d="M75.2118 54.988H24.0558V30.4474H26.5058V52.5364H72.7618V30.4474H75.2118V54.988Z" fill="#0833C5"/>
<path d="M59.7217 26.8313H39.1478V29.2829H59.7217V26.8313Z" fill="#0833C5"/>
<path d="M58.1047 29.2829H41.1078V18.4161H58.1047V29.2829ZM43.5578 26.8313H55.6547V20.8678H43.5578V26.8313Z" fill="#0833C5"/>
<path d="M50.6626 19.642H48.2126V28.0571H50.6626V19.642Z" fill="#0833C5"/>
<path d="M50.8586 54.9881H36.4465V37.0668H50.8586V54.9881ZM38.8965 52.5365H48.4086V39.5184H38.8965V52.5365Z" fill="#0833C5"/>
<path d="M38.6544 37.5562L36.7014 39.0366L47.7731 53.6274L49.7261 52.147L38.6544 37.5562Z" fill="#0833C5"/>
<path d="M48.6748 37.1087L36.704 53.0254L38.6634 54.4974L50.6341 38.5808L48.6748 37.1087Z" fill="#0833C5"/>
<path d="M62.8209 54.9881H48.4088V37.0668H62.8209V54.9881ZM50.8588 52.5365H60.3709V39.5184H50.8588V52.5365Z" fill="#0833C5"/>
<path d="M50.617 37.5539L48.6639 39.0343L59.7356 53.6251L61.6887 52.1447L50.617 37.5539Z" fill="#0833C5"/>
<path d="M60.6416 37.1037L48.6708 53.0204L50.6302 54.4924L62.601 38.5758L60.6416 37.1037Z" fill="#0833C5"/>
<path d="M91.5899 49.1042C86.5062 49.1042 82.5249 43.3552 82.5249 36.0187C82.5249 28.6823 86.5062 22.9332 91.5899 22.9332C96.6737 22.9332 100.655 28.6823 100.655 36.0187C100.655 43.3552 96.6737 49.1042 91.5899 49.1042ZM91.5899 25.391C88.0007 25.391 84.9749 30.2574 84.9749 36.0248C84.9749 41.7923 88.0068 46.6587 91.5899 46.6587C95.173 46.6587 98.2049 41.7923 98.2049 36.0248C98.2049 30.2574 95.1792 25.391 91.5899 25.391Z" fill="#0833C5"/>
<path d="M92.8151 36.0187H90.3651V60.0384H92.8151V36.0187Z" fill="#0833C5"/>
</svg>
