<svg width="70" height="73" viewBox="0 0 70 73" fill="none" xmlns="http://www.w3.org/2000/svg">
    <path d="M17.4922 65.8022C22.82 65.8022 27.1391 61.4803 27.1391 56.149C27.1391 50.8176 22.82 46.4957 17.4922 46.4957C12.1644 46.4957 7.84534 50.8176 7.84534 56.149C7.84534 61.4803 12.1644 65.8022 17.4922 65.8022Z" fill="#DFF900"/>
    <path d="M39.6278 17.156C43.7785 17.156 47.1432 13.789 47.1432 9.63567C47.1432 5.48231 43.7785 2.11536 39.6278 2.11536C35.4772 2.11536 32.1124 5.48231 32.1124 9.63567C32.1124 13.789 35.4772 17.156 39.6278 17.156Z" fill="white"/>
    <path d="M39.6279 18.3756C34.8075 18.3756 30.8875 14.4531 30.8875 9.62954C30.8875 4.80601 34.8075 0.883423 39.6279 0.883423C44.4482 0.883423 48.3682 4.80601 48.3682 9.62954C48.3682 14.4531 44.4421 18.3756 39.6279 18.3756ZM39.6279 3.34116C36.1611 3.34116 33.3375 6.16663 33.3375 9.63566C33.3375 13.1047 36.1611 15.9302 39.6279 15.9302C43.0946 15.9302 45.9182 13.1047 45.9182 9.63566C45.9182 6.16663 43.0946 3.34116 39.6279 3.34116Z" fill="#0833C5"/>
    <path d="M17.4554 72.8137C13.8722 72.8137 10.4055 71.6676 7.48384 69.4857C3.90071 66.8073 1.57933 62.897 0.936208 58.4718C0.293082 54.0466 1.41397 49.6337 4.08447 46.0544C6.75497 42.4689 10.6689 40.146 15.0911 39.5024L15.4403 41.9295C11.6673 42.475 8.32911 44.4608 6.04448 47.5253C3.75985 50.5837 2.80434 54.347 3.35559 58.1286C4.48872 65.9247 11.7407 71.3489 19.5379 70.2211C27.3289 69.0873 32.7495 61.8244 31.6225 54.0282L34.048 53.6789C35.371 62.8173 29.0194 71.3244 19.8931 72.6544C19.0785 72.7524 18.2639 72.8137 17.4554 72.8137Z" fill="#0833C5"/>
    <path d="M60.8817 61.7448C60.8143 61.6529 54.3525 52.2203 50.9654 46.8757C48.5215 43.0206 46.9351 42.4015 43.8909 41.9112C40.4487 41.3596 35.169 40.5567 35.169 40.5567C34.8443 40.5077 34.5564 40.3299 34.3604 40.0664C34.1644 39.8028 34.091 39.4719 34.1461 39.147C34.1583 39.0673 35.4875 31.0506 36.3266 25.5099C36.5777 23.8489 36.296 22.666 35.4752 21.9918C34.3421 21.0602 32.1064 21.0357 29.6442 21.9305C26.4163 23.1012 15.324 27.6734 13.1373 28.5805L5.15644 42.0215L3.04944 40.7712L11.2386 26.9809C11.3733 26.7541 11.5816 26.5763 11.8204 26.4721C12.3656 26.2454 25.1852 20.9376 28.8112 19.626C32.1861 18.4063 35.1812 18.5779 37.031 20.0979C38.0845 20.9621 39.236 22.666 38.746 25.8776C38.0967 30.1373 37.1657 35.8496 36.7615 38.3257C38.5316 38.5954 41.8575 39.1102 44.2768 39.4964C48.056 40.1031 50.2181 41.1206 53.0295 45.5641C56.3921 50.878 62.8295 60.2677 62.8969 60.3596L60.8817 61.7448Z" fill="#0833C5"/>
    <path d="M53.4703 67.3835L42.4086 52.4163C40.271 51.8954 30.765 49.5602 24.9707 47.8257C22.2145 46.9983 20.4321 45.6928 19.5256 43.8296C17.8412 40.3666 19.5991 35.8618 21.6387 30.6399L21.9327 29.886L24.2173 30.7747L23.9233 31.5347C22.0981 36.2173 20.5178 40.2625 21.7306 42.757C22.3186 43.9705 23.611 44.8592 25.6812 45.4783C32.1431 47.415 43.3151 50.1118 43.4253 50.1363C43.7071 50.2038 43.9521 50.3693 44.1236 50.6022L55.4487 65.9309L53.4703 67.3835Z" fill="#0833C5"/>
    <path d="M68.4824 59.3094L54.4923 69.3939L55.9243 71.3832L69.9144 61.2987L68.4824 59.3094Z" fill="#0833C5"/>
</svg>
