<svg width="21" height="22" viewBox="0 0 21 22" xmlns="http://www.w3.org/2000/svg">
<g clip-path="url(#clip0_108_196)">
<path d="M15.3155 0.687988H5.6845C2.55001 0.687988 0 3.238 0 6.37249V16.0036C0 19.1379 2.55001 21.6879 5.6845 21.6879H15.3156C18.4499 21.6879 21 19.1379 21 16.0036V6.37249C21 3.238 18.4499 0.687988 15.3155 0.687988V0.687988ZM10.5 16.93C7.33377 16.93 4.75796 14.3542 4.75796 11.188C4.75796 8.02176 7.33377 5.44595 10.5 5.44595C13.6662 5.44595 16.242 8.02176 16.242 11.188C16.242 14.3542 13.6662 16.93 10.5 16.93V16.93ZM16.3793 6.80011C15.4436 6.80011 14.6826 6.03908 14.6826 5.10341C14.6826 4.16774 15.4436 3.40655 16.3793 3.40655C17.315 3.40655 18.0762 4.16774 18.0762 5.10341C18.0762 6.03908 17.315 6.80011 16.3793 6.80011Z"/>
<path d="M10.5002 6.67725C8.01296 6.67725 5.98926 8.70079 5.98926 11.1882C5.98926 13.6754 8.01296 15.6991 10.5002 15.6991C12.9875 15.6991 15.0111 13.6754 15.0111 11.1882C15.0111 8.70079 12.9875 6.67725 10.5002 6.67725V6.67725Z"/>
<path d="M16.3797 4.6377C16.123 4.6377 15.9141 4.84662 15.9141 5.10329C15.9141 5.35995 16.123 5.56888 16.3797 5.56888C16.6365 5.56888 16.8454 5.36011 16.8454 5.10329C16.8454 4.84646 16.6365 4.6377 16.3797 4.6377Z"/>
</g>
<defs>
<clipPath id="clip0_108_196">
<rect width="21" height="21" transform="translate(0 0.687988)"/>
</clipPath>
</defs>
</svg>
