<svg width="23" height="23" viewBox="0 0 23 23" xmlns="http://www.w3.org/2000/svg">
<path d="M5.21058 22.8041C5.63222 22.8041 5.97399 22.4624 5.97399 22.0407V8.41824C5.97399 7.99661 5.63222 7.65483 5.21058 7.65483H1.96091C1.53927 7.65483 1.1975 7.99661 1.1975 8.41824V22.0407C1.1975 22.4624 1.53927 22.8041 1.96091 22.8041H5.21058Z"/>
<path d="M0.498535 3.2835C0.498535 4.9885 1.88074 6.37071 3.58574 6.37071C5.29082 6.37071 6.67295 4.9885 6.67295 3.2835C6.67295 1.5785 5.29075 0.196289 3.58574 0.196289C1.88074 0.196289 0.498535 1.5785 0.498535 3.2835Z"/>
<path d="M22.2548 22.8041C22.6424 22.8041 22.9567 22.4899 22.9567 22.1022V15.5092L22.9567 15.4605C22.9569 12.5843 22.9572 7.42625 17.4049 7.42625C14.8833 7.42625 13.699 8.34931 12.9021 9.54522V8.35675C12.9021 7.96912 12.5878 7.65483 12.2002 7.65483H8.82753C8.4399 7.65483 8.12561 7.96912 8.12561 8.35675V22.1022C8.12561 22.4899 8.4399 22.8041 8.82753 22.8041H12.2002C12.5879 22.8041 12.9021 22.4899 12.9021 22.1022V14.7323C12.9896 13.7421 13.4256 11.5355 15.5747 11.5355C18.3453 11.5355 18.0657 14.7593 18.0657 15.7125V22.1022C18.0657 22.4899 18.38 22.8041 18.7676 22.8041H22.2548Z"/>
</svg>
