<svg width="23" height="23" viewBox="0 0 23 23" xmlns="http://www.w3.org/2000/svg">
<path d="M8.2879 22.4963C13.4224 24.0962 19.913 21.7089 22.2558 15.5263C24.5522 9.46639 21.3478 2.70007 15.2082 0.624088C9.03258 -1.46414 2.53489 1.86819 0.583946 7.93325C-1.48832 14.3753 2.27367 20.0749 6.85456 21.9865C6.8605 21.9768 6.87163 21.9675 6.872 21.9579C6.87385 21.9022 6.87459 21.8466 6.87348 21.7913C6.85864 20.9858 6.88721 20.1836 7.07273 19.3955C7.55249 17.3577 8.03633 15.3207 8.51571 13.2826C8.53315 13.2091 8.54169 13.1174 8.51349 13.0518C8.16768 12.2414 8.10608 11.3995 8.25042 10.5424C8.37917 9.77881 8.71608 9.11984 9.35538 8.65529C10.4184 7.88241 11.7178 8.40744 11.9367 9.69755C12.0287 10.2396 11.9119 10.7691 11.7657 11.2886C11.4978 12.2396 11.2043 13.1839 10.9531 14.1393C10.7093 15.0658 11.2047 15.9496 12.1055 16.2431C12.605 16.4056 13.1085 16.3648 13.5994 16.1975C14.2795 15.9652 14.7733 15.494 15.1522 14.9048C16.2479 13.2013 16.5863 11.3123 16.3039 9.34395C16.0605 7.64717 15.0112 6.55149 13.3638 6.06282C12.4176 5.78194 11.4477 5.77341 10.4789 5.92628C7.80628 6.34741 6.02157 8.69537 5.97296 11.1142C5.95404 12.047 6.14475 12.9052 6.76773 13.6336C6.91764 13.8087 6.95474 14.0195 6.89612 14.2443C6.81857 14.543 6.74288 14.8424 6.66087 15.1404C6.56329 15.4955 6.3748 15.5845 6.03344 15.4339C5.35629 15.1352 4.81976 14.6725 4.45726 14.0258C3.75747 12.7772 3.58419 11.4288 3.8198 10.0397C4.19715 7.81563 5.45128 6.17673 7.35213 5.02131C8.5146 4.31484 9.80583 3.99278 11.1546 3.89111C12.9215 3.75791 14.5915 4.05883 16.1072 5.02057C17.883 6.14742 18.9865 7.73214 19.1795 9.84226C19.349 11.6993 19.0281 13.4981 18.1175 15.1474C17.1046 16.983 15.5982 18.144 13.4535 18.3206C12.1638 18.4267 11.0447 18.0672 10.2437 16.9767C10.2396 16.9711 10.2233 16.9748 10.201 16.9733C10.06 17.5269 9.92308 18.0838 9.7754 18.6378C9.55463 19.466 9.41067 20.3194 9.02701 21.0967C8.79548 21.5646 8.53909 22.0225 8.2879 22.4963Z"/>
</svg>
