<svg width="146" height="20" viewBox="0 0 146 20" fill="none" xmlns="http://www.w3.org/2000/svg">
<g clip-path="url(#clip0_1_6650)">
<path d="M11.789 19.4982C5.38798 16.0142 1.38257 11.4571 1.2063 11.2645L0 10.0009L1.20842 8.61026C1.37832 8.42188 5.51965 3.97062 11.7911 0.501465L13.7981 4.00237C10.0815 6.05761 7.10185 8.51925 5.51753 10.003C7.13796 11.5164 9.99866 13.9336 13.7981 16.0036L11.789 19.4982Z" fill="#0ADBAB"/>
<path d="M40.3873 19.5005L38.3804 15.9996C42.3072 13.9296 45.2571 11.5166 46.9051 9.99901C45.2826 8.50679 42.1861 6.04092 38.3804 3.99838L40.3873 0.495361C46.8011 3.93488 51.0507 8.44118 51.227 8.62956L52.429 9.99901L51.227 11.2521C51.0465 11.4468 46.937 16.0483 40.3873 19.5005Z" fill="#0ADBAB"/>
<path d="M35.8724 6.73299L33.8463 3.26807L28.1143 6.53614V0H24.0621V6.53614L18.3301 3.26807L16.3062 6.73299L22.0382 10.0011L16.3062 13.2691L18.3301 16.7319L24.0621 13.4639V20H28.1143V13.4639L33.8463 16.7319L35.8724 13.2691L30.1403 10.0011L35.8724 6.73299Z" fill="#0ADBAB"/>
<path d="M56.1948 15.5001L65.4757 4.99951H56.4454V1.75049H70.2414V4.49999L60.9606 15.0006H70.2414L70.2371 18.2517H56.1885L56.1948 15.5001Z" fill="#0833C5"/>
<path d="M73.5034 1.75049L81.1936 1.75895C83.2982 1.75895 84.9292 2.34738 86.0166 3.43109C86.9383 4.34971 87.4353 5.64508 87.4353 7.24737C87.4353 9.91008 85.8934 11.4722 83.7888 12.249L88.0448 18.2496H83.7888L80.0828 13.0004H77.2667V18.2496H73.5034V1.75049ZM81.0279 9.75134C82.8012 9.75134 83.7463 8.82849 83.7463 7.3913C83.7463 5.83558 82.5485 5.00163 80.7752 5.00163H77.2625L77.2646 9.75134H81.0279Z" fill="#0833C5"/>
<path d="M90.5615 1.75049L103.355 1.77377V5.00163H94.3206L94.3227 8.25277H102.346L102.342 11.5039H94.3227L94.3206 15.0048L103.293 15.0281V18.2559H90.5636L90.5615 1.75049Z" fill="#0833C5"/>
<path d="M133.207 1.75049L146 1.77377V5.00163H136.966L136.968 8.25277H144.991L144.987 11.5039H136.968L136.966 15.0048L145.938 15.0281V18.2559H133.209L133.207 1.75049Z" fill="#0833C5"/>
<path d="M106.364 1.75049L109.996 1.75895L117.656 12.0013L117.652 1.75049H121.415V18.2517H118.153L110.13 7.75112L110.128 18.2517H106.369L106.364 1.75049Z" fill="#0833C5"/>
<path d="M125.429 1.75049H129.188V18.2517H125.429V1.75049Z" fill="#0833C5"/>
</g>
<defs>
<clipPath id="clip0_1_6650">
<rect width="146" height="20" fill="white"/>
</clipPath>
</defs>
</svg>
