<?xml version="1.0" encoding="utf-8"?><!-- Uploaded to: SVG Repo, www.svgrepo.com, Generator: SVG Repo Mixer Tools -->
<svg fill="#000000" width="800px" height="800px" viewBox="0 0 24 24" id="eye-alt" data-name="Flat Line" xmlns="http://www.w3.org/2000/svg" class="icon flat-line"><path id="secondary" d="M12,3a9,9,0,1,0,9,9A9,9,0,0,0,12,3Zm0,12c-2.76,0-5-3-5-3s2.24-3,5-3,5,3,5,3S14.76,15,12,15Z" style="fill: rgb(44, 169, 188); stroke-width: 2;"></path><line id="primary-upstroke" x1="12.05" y1="12" x2="11.95" y2="12" style="fill: none; stroke: rgb(0, 0, 0); stroke-linecap: round; stroke-linejoin: round; stroke-width: 2.5;"></line><path id="primary" d="M17,12s-2.24,3-5,3-5-3-5-3,2.24-3,5-3S17,12,17,12ZM12,3a9,9,0,1,0,9,9A9,9,0,0,0,12,3Z" style="fill: none; stroke: rgb(0, 0, 0); stroke-linecap: round; stroke-linejoin: round; stroke-width: 2;"></path></svg>