<svg width="50" height="52" viewBox="0 0 50 52" fill="none" xmlns="http://www.w3.org/2000/svg">
    <path d="M24.9941 31.4448C32.3301 31.4448 38.2772 25.4874 38.2772 18.1386C38.2772 10.7899 32.3301 4.83252 24.9941 4.83252C17.658 4.83252 11.7109 10.7899 11.7109 18.1386C11.7109 25.4874 17.658 31.4448 24.9941 31.4448Z" fill="#0ADBAB"/>
    <path d="M24.9941 26.1019C21.7004 26.1019 19.0278 23.419 19.0278 20.1253C19.0278 16.8316 21.7061 14.1487 24.9941 14.1487C28.2879 14.1487 30.9604 16.8316 30.9604 20.1253C30.9604 23.419 28.2879 26.1019 24.9941 26.1019ZM24.9941 16.4263C22.9598 16.4263 21.3072 18.0817 21.3072 20.1196C21.3072 22.1575 22.9598 23.8129 24.9941 23.8129C27.0285 23.8129 28.681 22.1575 28.681 20.1196C28.681 18.0817 27.0285 16.4263 24.9941 16.4263Z" fill="#0833C5"/>
    <path d="M18.3667 12.1735C15.073 12.1735 12.4004 9.49054 12.4004 6.19683C12.4004 2.89742 15.0787 0.220215 18.3667 0.220215C21.6547 0.220215 24.333 2.90313 24.333 6.19683C24.333 9.49054 21.6547 12.1735 18.3667 12.1735ZM18.3667 2.49784C16.3323 2.49784 14.6798 4.15325 14.6798 6.19113C14.6798 8.229 16.3323 9.88442 18.3667 9.88442C20.401 9.88442 22.0536 8.229 22.0536 6.19113C22.0536 4.15325 20.401 2.49784 18.3667 2.49784Z" fill="#0833C5"/>
    <path d="M32.7383 12.1735C29.4446 12.1735 26.772 9.49054 26.772 6.19683C26.772 2.89742 29.4503 0.220215 32.7383 0.220215C36.032 0.220215 38.7046 2.90313 38.7046 6.19683C38.7103 9.49054 36.032 12.1735 32.7383 12.1735ZM32.7383 2.49784C30.7039 2.49784 29.0514 4.15325 29.0514 6.19113C29.0514 8.229 30.7039 9.88442 32.7383 9.88442C34.7726 9.88442 36.4252 8.229 36.4252 6.19113C36.4309 4.15325 34.7726 2.49784 32.7383 2.49784Z" fill="#0833C5"/>
    <path d="M34.5618 40.3554H32.2824V33.6481C32.2824 29.4867 28.9032 26.1017 24.749 26.1017C20.5949 26.1017 17.2157 29.4867 17.2157 33.6481V40.3554H14.9363V33.6481C14.9363 28.2309 19.3355 23.8184 24.749 23.8184C30.1626 23.8184 34.5618 28.2252 34.5618 33.6481V40.3554Z" fill="#0833C5"/>
    <path d="M18.0192 43.9061C16.321 43.9061 14.9363 42.519 14.9363 40.8179V33.7966H17.2157V40.8179C17.2157 41.2517 17.5861 41.6228 18.0192 41.6228C18.4522 41.6228 18.8226 41.2517 18.8226 40.8179V33.7966H21.102V40.8179C21.102 42.5247 19.723 43.9061 18.0192 43.9061Z" fill="#0833C5"/>
    <path d="M31.4789 43.9061C29.7807 43.9061 28.396 42.519 28.396 40.8179V33.7966H30.6754V40.8179C30.6754 41.2631 31.0344 41.6228 31.4789 41.6228C31.912 41.6228 32.2824 41.2517 32.2824 40.8179V33.7966H34.5617V40.8179C34.5617 42.5247 33.177 43.9061 31.4789 43.9061Z" fill="#0833C5"/>
    <path d="M21.1019 35.4121H18.8225V51.795H21.1019V35.4121Z" fill="#0833C5"/>
    <path d="M30.6754 35.4121H28.396V51.795H30.6754V35.4121Z" fill="#0833C5"/>
    <path d="M40.1233 23.2762C36.8296 23.2762 34.157 20.5933 34.157 17.2996C34.157 14.0002 36.8353 11.323 40.1233 11.323C43.4113 11.323 46.0896 14.0059 46.0896 17.2996C46.0896 20.5933 43.4113 23.2762 40.1233 23.2762ZM40.1233 13.6006C38.0889 13.6006 36.4364 15.256 36.4364 17.2939C36.4364 19.3318 38.0889 20.9872 40.1233 20.9872C42.1576 20.9872 43.8102 19.3318 43.8102 17.2939C43.8102 15.2617 42.1576 13.6006 40.1233 13.6006Z" fill="#0833C5"/>
    <path d="M49.6856 37.53H47.4062V30.8227C47.4062 26.6613 44.027 23.2763 39.8728 23.2763V20.9929C45.2807 20.9929 49.6856 25.3998 49.6856 30.8227V37.53Z" fill="#0833C5"/>
    <path d="M46.6026 41.0863C44.9045 41.0863 43.5198 39.6991 43.5198 37.9981V30.9768H45.7992V37.9981C45.7992 38.4319 46.1696 38.8029 46.6026 38.8029C47.0357 38.8029 47.4061 38.4319 47.4061 37.9981V30.9768H49.6855V37.9981C49.6855 39.6991 48.3008 41.0863 46.6026 41.0863Z" fill="#0833C5"/>
    <path d="M45.7992 32.5864H43.5198V46.0067H45.7992V32.5864Z" fill="#0833C5"/>
    <path d="M10.1098 23.2762C6.81614 23.2762 4.14355 20.5933 4.14355 17.2996C4.14355 14.0002 6.82183 11.323 10.1098 11.323C13.3979 11.323 16.0761 14.0059 16.0761 17.2996C16.0761 20.5933 13.3979 23.2762 10.1098 23.2762ZM10.1098 13.6006C8.0755 13.6006 6.42294 15.256 6.42294 17.2939C6.42294 19.3318 8.0755 20.9872 10.1098 20.9872C12.1442 20.9872 13.7968 19.3318 13.7968 17.2939C13.7968 15.2617 12.1442 13.6006 10.1098 13.6006Z" fill="#0833C5"/>
    <path d="M2.827 37.53H0.547607V30.8227C0.547607 25.4055 4.94683 20.9929 10.3604 20.9929V23.2763C6.20619 23.2763 2.827 26.6613 2.827 30.8227V37.53Z" fill="#0833C5"/>
    <path d="M3.63049 41.0863C1.93234 41.0863 0.547607 39.6991 0.547607 37.9981V30.9768H2.827V37.9981C2.827 38.4433 3.186 38.8029 3.63049 38.8029C4.06357 38.8029 4.43396 38.4319 4.43396 37.9981V30.9768H6.71336V37.9981C6.70766 39.6991 5.32863 41.0863 3.63049 41.0863Z" fill="#0833C5"/>
    <path d="M6.70786 32.5864H4.42847V46.0067H6.70786V32.5864Z" fill="#0833C5"/>
</svg>
