<svg width="30" height="29" viewBox="0 0 30 29" xmlns="http://www.w3.org/2000/svg">
<path d="M17.9648 1C23.3481 1.59781 27.6011 5.84507 28.2062 11.2283" stroke="#E0FA00" stroke-width="1.5" stroke-linecap="square" stroke-linejoin="round" fill="none"/>
<path d="M17.9648 6.15332C20.5408 6.65368 22.5539 8.6682 23.0558 11.2442" stroke="#E0FA00" stroke-width="1.5" stroke-linecap="square" stroke-linejoin="round" fill="none"/>
<path d="M27.9356 21.171V25.2268C27.9356 25.9439 27.6502 26.6316 27.1422 27.1387C26.6343 27.6458 25.9453 27.9307 25.227 27.9307H24.9696C20.8022 27.4786 16.7991 26.0571 13.282 23.7802C10.0103 21.7038 7.23619 18.9345 5.15619 15.6686C2.87354 12.1397 1.45396 8.12459 1.01202 3.94723C0.97847 3.59292 1.01532 3.23548 1.12045 2.89542C1.22558 2.55536 1.39693 2.23936 1.62467 1.96555C1.8524 1.69173 2.13205 1.46549 2.44757 1.2998C2.76308 1.13411 3.10826 1.03223 3.46331 1H7.76999C10.2077 1 10.2077 1 10.4786 3.32534C10.6519 4.62295 10.9699 5.89717 11.4266 7.12429C12.1444 8.84126 12.0902 8.8007 10.8172 9.97689C10.3296 10.4636 9.09721 11.6939 9.09721 11.6939C11.0251 15.0785 13.8325 17.8809 17.223 19.8055L18.943 18.0885C19.9994 16.8447 19.9994 16.8447 21.8006 17.4802C23.0318 17.9299 24.3075 18.2472 25.6062 18.4265C28.1929 18.751 27.9356 18.6834 27.9356 21.171Z" stroke="#E0FA00" stroke-width="1.5" stroke-linecap="round" stroke-linejoin="round" fill="none"/>
</svg>
