<svg width="27" height="20" viewBox="0 0 27 20" fill="none" xmlns="http://www.w3.org/2000/svg">
<path d="M26.4437 3.96813C26.1326 2.80635 25.2206 1.89054 24.0641 1.57771C21.9512 0.99707 13.4997 0.99707 13.4997 0.99707C13.4997 0.99707 5.0485 0.99707 2.93566 1.5557C1.80138 1.86819 0.867153 2.80652 0.556019 3.96813C0 6.09008 0 10.4907 0 10.4907C0 10.4907 0 14.9135 0.556019 17.0133C0.867482 18.1749 1.77913 19.0907 2.93583 19.4036C5.07075 19.9844 13.5 19.9844 13.5 19.9844C13.5 19.9844 21.9512 19.9844 24.0641 19.4257C25.2208 19.1131 26.1326 18.1973 26.444 17.0357C26.9999 14.9135 26.9999 10.5131 26.9999 10.5131C26.9999 10.5131 27.0221 6.09008 26.4437 3.96813V3.96813ZM10.8089 14.5562V6.42525L17.8368 10.4907L10.8089 14.5562Z" fill="#0ADBAB"/>
</svg>
