<svg width="72" height="69" viewBox="0 0 72 69" fill="none" xmlns="http://www.w3.org/2000/svg">
    <path d="M49.6357 43.6026C56.1086 37.1407 66.477 37.0184 66.477 37.0184C66.477 37.0184 66.3545 47.3693 59.8816 53.8313C53.4087 60.2933 43.0403 60.4156 43.0403 60.4156C43.0403 60.4156 43.1628 50.0646 49.6357 43.6026Z" fill="#0ADBAB"/>
    <path d="M42.7364 34.1029C46.431 37.7913 46.4996 43.7005 46.4996 43.7005C46.4996 43.7005 40.5804 43.632 36.8858 39.9436C33.1912 36.2553 33.1226 30.346 33.1226 30.346C33.1226 30.346 39.0418 30.4145 42.7364 34.1029Z" fill="#0ADBAB"/>
    <path d="M71.0143 64.1431H30.6628V62.1864H69.0543V27.1468C69.0543 20.7729 63.8603 15.5827 57.4707 15.5827H40.7862C34.4015 15.5827 29.2026 20.768 29.2026 27.1468V38.887H27.2426V27.1468C27.2426 19.6918 33.3186 13.626 40.7862 13.626H57.4707C64.9383 13.626 71.0143 19.6918 71.0143 27.1468V64.1431Z" fill="#0833C5"/>
    <path d="M60.1609 15.5828H38.5029V8.43103H60.1609V15.5828ZM40.4629 13.6261H58.2009V10.3877H40.4629V13.6261Z" fill="#0833C5"/>
    <path d="M63.777 10.3927H34.8817V0.785278H63.777V10.3927ZM36.8417 8.43596H61.817V2.74197H36.8417V8.43596Z" fill="#0833C5"/>
    <path d="M64.7815 26.0706H28.2275V28.0273H64.7815V26.0706Z" fill="#0833C5"/>
    <path d="M70.0344 52.354H39.4829V54.3107H70.0344V52.354Z" fill="#0833C5"/>
    <path d="M18.9568 36.7835L17.9523 36.7738C17.7612 36.7738 13.1944 36.6857 10.2446 33.7409C7.29477 30.7961 7.20657 26.237 7.20657 26.0462L7.19678 25.0434L8.20127 25.0532C8.39237 25.0532 12.9592 25.1412 15.909 28.086C18.8588 31.0309 18.947 35.59 18.947 35.7807L18.9568 36.7835ZM11.6313 32.3516C13.2385 33.9561 15.5366 34.5138 16.8792 34.7095C16.6832 33.3642 16.1197 31.0651 14.5174 29.4655C12.92 27.8708 10.617 27.3082 9.26948 27.1126C9.47038 28.4578 10.0339 30.7569 11.6313 32.3516Z" fill="#0833C5"/>
    <path d="M24.4693 68.3988C21.9997 68.3988 20.8776 67.3911 20.0543 66.6574C19.4958 66.1584 19.2262 65.9383 18.7362 65.9383C18.2462 65.9383 17.9767 66.1584 17.4181 66.6574C16.5949 67.3911 15.4728 68.3988 13.0033 68.3988C5.62385 68.3988 0.625854 53.6796 0.625854 48.7878C0.625854 43.495 3.83535 38.1532 11.0041 38.1532C15.3944 38.1532 17.6484 39.6256 18.7362 40.7752C19.824 39.6256 22.0731 38.1532 26.4684 38.1532C33.6371 38.1532 36.8466 43.495 36.8466 48.7878C36.8417 53.6796 31.8438 68.3988 24.4693 68.3988ZM18.7362 63.9816C19.9955 63.9816 20.7207 64.6273 21.3626 65.1996C22.078 65.8405 22.7494 66.4421 24.4693 66.4421C29.9328 66.4421 34.8867 53.7334 34.8867 48.7878C34.8867 44.7864 32.6816 40.1099 26.4684 40.1099C20.8579 40.1099 19.6917 42.7172 19.6476 42.8297C19.4908 43.1966 19.1233 43.4412 18.7215 43.4363C18.3197 43.4265 17.9621 43.1868 17.82 42.815C17.7808 42.7221 16.6145 40.1148 11.0041 40.1148C4.79085 40.1148 2.58585 44.7864 2.58585 48.7927C2.58585 53.7383 7.53975 66.447 13.0033 66.447C14.7232 66.447 15.3944 65.8453 16.1098 65.2045C16.7517 64.6322 17.472 63.9816 18.7362 63.9816Z" fill="#0833C5"/>
    <path d="M43.1382 1.76361H41.1782V9.08655H43.1382V1.76361Z" fill="#0833C5"/>
    <path d="M50.3119 1.76361H48.3519V9.08655H50.3119V1.76361Z" fill="#0833C5"/>
    <path d="M57.0495 1.76361H55.0895V9.08655H57.0495V1.76361Z" fill="#0833C5"/>
</svg>
