<svg width="73" height="51" viewBox="0 0 73 51" fill="none" xmlns="http://www.w3.org/2000/svg">
<path d="M36.1318 38.6432C43.5928 38.6432 49.6411 32.6051 49.6411 25.1567C49.6411 17.7083 43.5928 11.6702 36.1318 11.6702C28.6709 11.6702 22.6226 17.7083 22.6226 25.1567C22.6226 32.6051 28.6709 38.6432 36.1318 38.6432Z" fill="#0ADBAB"/>
<path d="M72.2596 50.0507H60.2546V48.094H70.2996V38.066H72.2596V50.0507Z" fill="#0833C5"/>
<path d="M12.0141 50.0507H0.00415039V38.066H1.96415V48.094H12.0141V50.0507Z" fill="#0833C5"/>
<path d="M72.2596 12.2474H70.2996V2.21933H60.2546V0.262634H72.2596V12.2474Z" fill="#0833C5"/>
<path d="M1.96415 12.2474H0.00415039V0.262634H12.0141V2.21933H1.96415V12.2474Z" fill="#0833C5"/>
<path d="M36.1319 44.2247C19.2073 44.2247 4.92378 26.3845 4.32598 25.6263L3.86047 25.0393L4.3113 24.4376C4.8797 23.6794 18.4086 5.81476 36.1319 5.81476C53.8552 5.81476 67.389 23.6745 67.9574 24.4376L68.4082 25.0393L67.9427 25.6263C67.34 26.3845 53.0565 44.2247 36.1319 44.2247ZM6.35459 25.0051C8.98589 28.0966 21.8337 42.268 36.1319 42.268C50.4301 42.268 63.2779 28.0966 65.9141 25.0051C63.3906 21.8939 51.0965 7.77145 36.1319 7.77145C21.1477 7.77145 8.87319 21.889 6.35459 25.0051Z" fill="#0833C5"/>
<path d="M35.9554 44.2394C25.4057 44.2394 16.8258 35.625 16.8258 25.0344C16.8258 14.4438 25.4057 5.82944 35.9554 5.82944C46.6227 5.82944 55.3055 14.4438 55.3055 25.0344C55.3055 35.625 46.6227 44.2394 35.9554 44.2394ZM35.9554 7.78124C26.4886 7.78124 18.7858 15.52 18.7858 25.0295C18.7858 34.5391 26.4886 42.2778 35.9554 42.2778C45.5447 42.2778 53.3455 34.5391 53.3455 25.0295C53.3455 15.52 45.5447 7.78124 35.9554 7.78124Z" fill="#0833C5"/>
<path d="M35.9555 35.1505C30.3548 35.1505 25.7979 30.5523 25.7979 24.9023C25.7979 19.2523 30.3548 14.6541 35.9555 14.6541C41.6738 14.6541 46.3289 19.2523 46.3289 24.9023C46.3289 30.5523 41.6787 35.1505 35.9555 35.1505ZM35.9555 16.6059C31.4328 16.6059 27.7579 20.3236 27.7579 24.8974C27.7579 29.4712 31.4377 33.1889 35.9555 33.1889C40.5958 33.1889 44.3689 29.4712 44.3689 24.8974C44.3689 20.3236 40.5958 16.6059 35.9555 16.6059Z" fill="#0833C5"/>
<path d="M26.822 24.1735H5.19824V26.1302H26.822V24.1735Z" fill="#0833C5"/>
<path d="M67.0605 24.1441H45.4418V26.1008H67.0605V24.1441Z" fill="#0833C5"/>
<path d="M37.0091 34.3581H35.0491V49.0333H37.0091V34.3581Z" fill="#0833C5"/>
<path d="M37.0091 1.18719H35.0491V15.5151H37.0091V1.18719Z" fill="#0833C5"/>
</svg>
