<svg width="64" height="62" viewBox="0 0 64 62" fill="none" xmlns="http://www.w3.org/2000/svg">
<path d="M50.2549 14.5346H14.1223V38.6215H50.2549V14.5346Z" fill="#E0FA00"/>
<path d="M32.2328 39.3846C21.0902 39.3846 11.6822 27.6934 11.2853 27.1944L10.8149 26.6025L11.2657 26.0008C11.6381 25.5019 20.5659 13.7862 32.2279 13.7862C43.8948 13.7862 52.7246 25.5019 53.0921 26.0008L53.538 26.5976L53.0774 27.1846C52.6903 27.6836 43.3754 39.3846 32.2328 39.3846ZM13.3237 26.5683C15.3719 28.9163 23.4079 37.4279 32.2328 37.4279C41.0626 37.4279 49.0251 28.9114 51.0488 26.5683C49.1084 24.2154 41.4742 15.7429 32.2328 15.7429C22.9816 15.7429 15.2837 24.2105 13.3237 26.5683Z" fill="#0833C5"/>
<path d="M32.4043 32.4873C35.7302 32.4873 38.4264 29.7956 38.4264 26.4753C38.4264 23.155 35.7302 20.4634 32.4043 20.4634C29.0784 20.4634 26.3822 23.155 26.3822 26.4753C26.3822 29.7956 29.0784 32.4873 32.4043 32.4873Z" fill="#0833C5"/>
<path d="M32.4043 38.9933C25.5492 38.9933 19.973 33.4265 19.973 26.5829C19.973 19.7394 25.5492 14.1726 32.4043 14.1726C39.2594 14.1726 44.8356 19.7394 44.8356 26.5829C44.8356 33.4265 39.2594 38.9933 32.4043 38.9933ZM32.4043 16.1293C26.6272 16.1293 21.933 20.8205 21.933 26.5829C21.933 32.3454 26.6321 37.0366 32.4043 37.0366C38.1765 37.0366 42.8756 32.3454 42.8756 26.5829C42.8756 20.8205 38.1814 16.1293 32.4043 16.1293Z" fill="#0833C5"/>
<path d="M63.7692 52.4064H0.671875V0.524658H63.7643V52.4064H63.7692ZM2.63187 50.4497H61.8043V2.48135H2.63187V50.4497Z" fill="#0833C5"/>
<path d="M49.8238 61.7888H14.3135L19.4781 50.4498H44.6641L49.8238 61.7888ZM17.3564 59.8321H46.7808L43.3999 52.4065H20.7374L17.3564 59.8321Z" fill="#0833C5"/>
<path d="M55.2628 17.3082H53.3028V11.4626H47.4473V9.50589H55.2628V17.3082Z" fill="#0833C5"/>
<path d="M55.2628 43.8753H47.4473V41.9186H53.3028V36.0729H55.2628V43.8753Z" fill="#0833C5"/>
<path d="M17.5424 43.8753H9.72681V36.0729H11.6868V41.9186H17.5424V43.8753Z" fill="#0833C5"/>
<path d="M11.6868 17.3082H9.72681V9.50589H17.5424V11.4626H11.6868V17.3082Z" fill="#0833C5"/>
</svg>
