<svg width="48" height="39" viewBox="0 0 48 39" fill="none" xmlns="http://www.w3.org/2000/svg">
<path d="M0.52 26.04C0.52 18.1067 6.30667 9.70666 17.88 0.839993L23.62 5.04C18.1133 11.48 15.36 17.0333 15.36 21.7C15.36 24.5933 16.5733 28.28 19 32.76L5.28 38.22C2.10667 34.2067 0.52 30.1467 0.52 26.04ZM24.32 26.04C24.32 18.1067 30.1067 9.70666 41.68 0.839993L47.42 5.04C41.9133 11.48 39.16 17.0333 39.16 21.7C39.16 24.5933 40.3733 28.28 42.8 32.76L29.08 38.22C25.9067 34.2067 24.32 30.1467 24.32 26.04Z" fill="#0ADBAB"/>
</svg>
