<svg width="65" height="44" viewBox="0 0 65 44" fill="none" xmlns="http://www.w3.org/2000/svg">
<path d="M32.1808 16.4397L49.1348 43.3932H15.2268L32.1808 16.4397Z" fill="#E0FA00"/>
<path d="M32.1172 38.9809C21.6263 38.9809 13.0905 30.4105 13.0905 19.8737C13.0905 9.33693 21.6263 0.766602 32.1172 0.766602C42.7306 0.766602 51.3644 9.33693 51.3644 19.8737C51.3644 30.4105 42.7306 38.9809 32.1172 38.9809ZM32.1172 2.7233C22.7043 2.7233 15.0505 10.418 15.0505 19.8737C15.0505 29.3295 22.7092 37.0242 32.1172 37.0242C41.6477 37.0242 49.4044 29.3295 49.4044 19.8737C49.4044 10.418 41.6477 2.7233 32.1172 2.7233Z" fill="#0833C5"/>
<path d="M32.2249 38.9815C15.3885 38.9815 1.18338 21.2392 0.590476 20.4809L0.125 19.8939L0.575822 19.2923C1.13932 18.534 14.5996 0.772125 32.2298 0.772125C49.86 0.772125 63.3203 18.5389 63.8838 19.2923L64.3347 19.8939L63.8691 20.4809C63.2664 21.2343 49.0613 38.9815 32.2249 38.9815ZM2.61908 19.8597C5.24059 22.9415 18.0149 37.0248 32.2249 37.0248C46.4496 37.0248 59.2141 22.9464 61.8356 19.8597C59.317 16.7583 47.1013 2.72393 32.2249 2.72393C17.3485 2.72393 5.13279 16.7583 2.61908 19.8597Z" fill="#0833C5"/>
<path d="M33.205 16.2686H31.245V23.7187H33.205V16.2686Z" fill="#0833C5"/>
<path d="M35.9587 19.0177H28.496V20.9744H35.9587V19.0177Z" fill="#0833C5"/>
<path d="M31.8379 11.6703C38.9968 11.6703 40.8098 16.7577 39.6534 20.4754C38.3941 24.5258 32.0094 34.0353 32.0094 34.0353C32.0094 34.0353 26.0755 24.3986 24.7966 20.4069C23.7725 17.2028 24.9681 11.6703 31.8379 11.6703ZM31.8379 9.71359C27.5357 9.71359 25.267 11.5822 24.1204 13.1476C22.5524 15.2902 22.0869 18.372 22.9297 21.0037C24.2625 25.1715 30.0886 34.6566 30.3385 35.0577L31.9359 37.6552L33.6362 35.1213C33.9008 34.7251 40.1924 25.328 41.5203 21.0526C42.3533 18.3769 41.9123 15.5054 40.3345 13.3726C39.1095 11.7045 36.635 9.71359 31.8379 9.71359Z" fill="#0833C5"/>
</svg>
