<svg version="1.0" xmlns="http://www.w3.org/2000/svg"
 width="48.000000pt" height="48.000000pt" viewBox="0 0 48.000000 48.000000"
 preserveAspectRatio="xMidYMid meet">
  <g transform="translate(0.000000,48.000000) scale(0.100000,-0.100000)"
  fill="#000000" stroke="none">
  <path d="M0 240 l0 -240 240 0 240 0 0 240 0 240 -240 0 -240 0 0 -240z m365
  125 c0 -6 -41 -11 -98 -13 l-98 -3 3 -51 3 -51 65 -1 c91 -1 93 -20 3 -24
  l-73 -3 0 -59 c0 -33 -4 -60 -10 -60 -6 0 -10 53 -10 140 l0 141 108 -3 c63
  -2 107 -7 107 -13z"/>
  </g>
</svg>
