<svg width="114" height="34" viewBox="0 0 114 34" fill="none" xmlns="http://www.w3.org/2000/svg">
    <path d="M0.671733 18.4773L0.671615 18.4766C0.1898 15.6217 0.72295 13.0558 2.26314 10.7474C2.67749 10.1394 3.0648 9.63646 3.43284 9.23337C3.81066 8.81956 4.69418 7.93092 6.10068 6.5575L11.9474 0.848299L21.6857 10.36L15.6429 16.2607L15.2766 16.6183L15.6428 16.9761L21.7259 22.9185C20.2169 24.3661 19.0145 25.3823 18.1097 25.9805L18.109 25.9809C15.6944 27.5831 12.9819 28.1292 9.93551 27.6099C7.54731 27.1976 5.5183 26.1722 3.8337 24.5273C2.11864 22.8525 1.06711 20.8405 0.671733 18.4773Z" stroke="white"/>
    <path d="M44.173 14.8007L44.1732 14.8019C44.6575 17.654 44.1244 20.2197 42.5817 22.5281C42.1673 23.1362 41.78 23.6392 41.4119 24.0423C41.0341 24.4561 40.1506 25.3448 38.7441 26.7182L32.8973 32.4276L23.159 22.9181L29.2019 17.0148L29.5681 16.6571L29.2019 16.2994L23.1189 10.3594C24.6279 8.91178 25.8303 7.89553 26.7351 7.29739L26.7358 7.29692C29.1502 5.69484 31.8626 5.14872 34.9088 5.66787C37.2972 6.08012 39.3264 7.10553 41.0111 8.75065C42.7261 10.4254 43.7777 12.4375 44.173 14.8007Z" stroke="white"/>
    <path d="M59.3638 1.72461C61.321 1.72461 63.4224 2.10872 64.6058 2.66676V4.76848C63.87 3.99302 61.7686 3.47846 59.3638 3.47846C57.1335 3.47846 55.6542 4.13072 55.6542 5.1091C55.6542 7.65291 65.1293 5.94979 65.1293 10.0228C65.1293 12.2477 62.9445 13.7334 59.6824 13.7334C57.179 13.7334 54.7894 13.2623 53.697 12.5448V10.3706C54.5087 11.3273 56.8983 11.9723 59.6824 11.9723C61.7231 11.9723 63.0886 11.3345 63.0886 10.3562C63.0886 7.92106 53.6135 9.31979 53.6135 5.28304C53.6135 3.15233 55.9045 1.72461 59.3638 1.72461Z" fill="white"/>
    <path d="M67.3145 5.08594H69.302V10.5652C69.302 11.4204 70.1744 12.1307 71.5475 12.1307C72.8523 12.1307 73.9219 10.9928 74.3846 9.26785V5.08594H76.3722V13.428H74.3846V11.2537C73.9371 12.7467 72.6019 13.7324 70.8647 13.7324C68.6951 13.7324 67.3145 12.3771 67.3145 10.5652V5.08594Z" fill="white"/>
    <path d="M82.8956 4.73828C84.3294 4.73828 85.7024 5.40507 86.3397 6.41251L86.37 5.02819H88.2817V12.5296C88.2817 15.2693 86.1349 17.0957 82.9107 17.0957C81.4466 17.0957 79.9294 16.6681 79.148 16.0448V14.2473C79.8459 14.9939 81.348 15.4795 82.888 15.4795C84.8604 15.4795 86.2335 14.5228 86.3093 13.0877L86.3776 11.8701C85.6645 12.979 84.1928 13.7255 82.7287 13.7255C80.0659 13.7255 78.2832 11.9136 78.2832 9.1884C78.2908 6.51398 80.1342 4.73828 82.8956 4.73828ZM86.3776 8.93473C86.3776 7.31848 85.1487 6.23857 83.3052 6.23857C81.477 6.23857 80.2632 7.39821 80.2632 9.14492C80.2632 10.9569 81.477 12.16 83.3052 12.16C85.1562 12.16 86.3776 11.0656 86.3776 9.40584V8.93473Z" fill="white"/>
    <path d="M96.6118 8.11635H97.7421C97.7269 7.03637 96.7104 6.3043 95.3373 6.3043C93.729 6.3043 92.1056 6.86966 91.0815 7.7177V6.05786C92.0677 5.26781 93.8883 4.73145 95.5269 4.73145C98.0304 4.73145 99.4945 6.22457 99.5096 8.34104L99.4945 13.422H97.8028L97.7573 11.581C97.378 12.8277 95.7166 13.6685 93.6152 13.6685C91.5898 13.6685 90.2546 12.6755 90.2698 11.2041C90.3001 9.34854 92.978 8.11635 96.6118 8.11635ZM97.5524 9.44277H96.7559C94.0021 9.44277 92.1511 10.0951 92.1511 11.0229C92.1511 13.0451 97.5524 12.2261 97.5524 9.44277Z" fill="white"/>
    <path d="M101.854 5.04268H103.842V6.7024C104.176 5.57901 105.389 4.73828 106.869 4.73828C107.422 4.73828 108.143 4.9847 108.667 5.33259V7.1445C108.272 6.79662 107.422 6.39799 106.565 6.39799C105.26 6.39799 104.176 7.26771 103.842 8.42009V13.4282H101.854V5.04268Z" fill="white"/>
    <path d="M53.978 17.9595H60.411C64.2495 17.9595 66.7985 20.199 66.7985 23.6633C66.7985 27.0407 64.2495 29.3672 60.411 29.3672H53.978V17.9595ZM60.4186 27.6857C63.013 27.6857 64.7351 26.1058 64.7351 23.7431C64.7351 21.2934 63.013 19.6482 60.4186 19.6482H56.0642V27.6857H60.4186Z" fill="white"/>
    <path d="M68.7026 18.93L70.1667 17.5312L71.5778 18.8793L70.1136 20.278L68.7026 18.93ZM69.1502 29.3735V20.9883H71.1378V29.3735H69.1502Z" fill="white"/>
    <path d="M77.7301 20.6846C79.1639 20.6846 80.537 21.3514 81.1742 22.3588L81.2045 20.9745H83.1162V28.4759C83.1162 31.2156 80.9694 33.042 77.7453 33.042C76.2812 33.042 74.764 32.6144 73.9826 31.9911V30.1936C74.6805 30.9401 76.1826 31.4257 77.7225 31.4257C79.6949 31.4257 81.068 30.469 81.1438 29.034L81.2197 27.8164C80.5066 28.9253 79.0349 29.6718 77.5708 29.6718C74.9081 29.6718 73.1254 27.8598 73.1254 25.1347C73.133 22.4603 74.9764 20.6846 77.7301 20.6846ZM81.2197 24.881C81.2197 23.2648 79.9908 22.1849 78.1473 22.1849C76.3191 22.1849 75.1053 23.3445 75.1053 25.0912C75.1053 26.9031 76.3191 28.1063 78.1473 28.1063C79.9983 28.1063 81.2197 27.0119 81.2197 25.3521V24.881Z" fill="white"/>
    <path d="M85.1797 18.93L86.6438 17.5312L88.0548 18.8793L86.5907 20.278L85.1797 18.93ZM85.6197 29.3735V20.9883H87.6072V29.3735H85.6197Z" fill="white"/>
    <path d="M91.5447 20.9593V18.5674H93.5323V20.9593H98.0081V22.5105H93.5323V26.8812C93.5323 27.6133 94.3592 28.0989 95.5881 28.0989C96.6729 28.0989 97.7198 27.7655 98.2129 27.2581V28.918C97.5908 29.3601 96.415 29.6646 95.2695 29.6646C93.0392 29.6646 91.5447 28.5411 91.5447 26.8305V22.5105H89.4585L89.4434 20.9593H91.5447Z" fill="white"/>
    <path d="M106.155 24.0613H107.285C107.27 22.9814 106.254 22.2494 104.881 22.2494C103.272 22.2494 101.649 22.8147 100.625 23.6627V22.003C101.611 21.2131 103.432 20.6768 105.07 20.6768C107.574 20.6768 109.038 22.1697 109.053 24.286L109.038 29.3664H107.346L107.3 27.5255C106.921 28.7721 105.26 29.6128 103.158 29.6128C101.133 29.6128 99.7978 28.6199 99.813 27.1487C99.8433 25.2933 102.521 24.0613 106.155 24.0613ZM107.096 25.3876H106.299C103.545 25.3876 101.694 26.0398 101.694 26.9675C101.694 28.9895 107.096 28.1706 107.096 25.3876Z" fill="white"/>
    <path d="M113.385 17.9595V29.374H111.397V17.9595H113.385Z" fill="white"/>
</svg>
