<svg width="76" height="69" viewBox="0 0 76 69" fill="none" xmlns="http://www.w3.org/2000/svg">
<path d="M50.5833 68.5992L37.4084 44.4508H63.3355L50.5833 68.5992Z" fill="#0ADBAB"/>
<path d="M9.75435 8.52252C11.7637 8.52252 13.3926 6.89254 13.3926 4.88187C13.3926 2.87119 11.7637 1.24121 9.75435 1.24121C7.74499 1.24121 6.11609 2.87119 6.11609 4.88187C6.11609 6.89254 7.74499 8.52252 9.75435 8.52252Z" fill="white"/>
<path d="M9.75436 9.74828C7.07161 9.74828 4.89111 7.56634 4.89111 4.88183C4.89111 2.19732 7.07161 0.0153809 9.75436 0.0153809C12.4371 0.0153809 14.6176 2.19732 14.6176 4.88183C14.6176 7.56021 12.431 9.74828 9.75436 9.74828ZM9.75436 2.46699C8.42524 2.46699 7.34111 3.55183 7.34111 4.88183C7.34111 6.21183 8.42524 7.29667 9.75436 7.29667C11.0835 7.29667 12.1676 6.21183 12.1676 4.88183C12.1676 3.55183 11.0835 2.46699 9.75436 2.46699Z" fill="#0833C5"/>
<path d="M65.0876 37.525H62.6376V27.0995C62.6376 20.3331 57.1373 14.8292 50.3753 14.8292C43.6133 14.8292 38.1131 20.3331 38.1131 27.0995V37.525H35.6631V27.0995C35.6631 18.9786 42.2658 12.3776 50.3753 12.3776C58.4848 12.3776 65.0876 18.9847 65.0876 27.0995V37.525Z" fill="#0833C5"/>
<path d="M39.9077 42.4957C37.568 42.4957 35.6631 40.5896 35.6631 38.2483V27.3386H38.1131V38.2483C38.1131 39.2412 38.9216 40.0441 39.9077 40.0441C40.8938 40.0441 41.7023 39.2351 41.7023 38.2483V27.3386H44.1523V38.2483C44.1523 40.5896 42.2475 42.4957 39.9077 42.4957Z" fill="#0833C5"/>
<path d="M60.8368 42.4957C58.497 42.4957 56.5922 40.5896 56.5922 38.2483V27.3386H59.0422V38.2483C59.0422 39.2412 59.8507 40.0441 60.8368 40.0441C61.8229 40.0441 62.6314 39.2351 62.6314 38.2483V27.3386H65.0814V38.2483C65.0875 40.5896 63.1827 42.4957 60.8368 42.4957Z" fill="#0833C5"/>
<path d="M69.8282 56.0531H67.3782V32.1131C67.3782 29.7718 69.283 27.8657 71.6228 27.8657C73.9625 27.8657 75.8674 29.7718 75.8674 32.1131H73.4174C73.4174 31.1202 72.6089 30.3173 71.6228 30.3173C70.6367 30.3173 69.8282 31.1264 69.8282 32.1131V56.0531Z" fill="#0833C5"/>
<path d="M44.1521 29.8392H41.7021V56.525H44.1521V29.8392Z" fill="#0833C5"/>
<path d="M59.0422 29.8392H56.5922V56.525H59.0422V29.8392Z" fill="#0833C5"/>
<path d="M50.755 16.9376C54.9022 16.9376 58.2642 13.5734 58.2642 9.42339C58.2642 5.27341 54.9022 1.90918 50.755 1.90918C46.6077 1.90918 43.2457 5.27341 43.2457 9.42339C43.2457 13.5734 46.6077 16.9376 50.755 16.9376Z" fill="white"/>
<path d="M50.755 18.1696C45.9346 18.1696 42.0208 14.247 42.0208 9.42956C42.0208 4.61214 45.9407 0.689575 50.755 0.689575C55.5753 0.689575 59.4892 4.61214 59.4892 9.42956C59.4892 14.247 55.5753 18.1696 50.755 18.1696ZM50.755 3.13505C47.2882 3.13505 44.4707 5.95441 44.4707 9.42345C44.4707 12.8925 47.2882 15.7118 50.755 15.7118C54.2217 15.7118 57.0392 12.8925 57.0392 9.42345C57.0392 5.95441 54.2217 3.13505 50.755 3.13505Z" fill="#0833C5"/>
<path d="M30.2485 37.525H27.7985V27.0995C27.7985 20.3331 22.2982 14.8292 15.5362 14.8292C8.77423 14.8292 3.27398 20.3331 3.27398 27.0995V37.525H0.823975V27.0995C0.823975 18.9786 7.42673 12.3776 15.5362 12.3776C23.6457 12.3776 30.2485 18.9847 30.2485 27.0995V37.525Z" fill="#0833C5"/>
<path d="M5.06861 42.4957C2.72886 42.4957 0.823975 40.5896 0.823975 38.2483V27.3386H3.27398V38.2483C3.27398 39.2412 4.08248 40.0441 5.06861 40.0441C6.05473 40.0441 6.86323 39.2351 6.86323 38.2483V27.3386H9.31323V38.2483C9.31936 40.5896 7.41449 42.4957 5.06861 42.4957Z" fill="#0833C5"/>
<path d="M26.0039 42.4957C23.6641 42.4957 21.7593 40.5896 21.7593 38.2483V27.3386H24.2093V38.2483C24.2093 39.2412 25.0178 40.0441 26.0039 40.0441C26.9961 40.0441 27.7985 39.2351 27.7985 38.2483V27.3386H30.2485V38.2483C30.2485 40.5896 28.3436 42.4957 26.0039 42.4957Z" fill="#0833C5"/>
<path d="M8.09431 26.7747L4.41931 55.2992H27.2717L22.9842 26.7747" fill="white"/>
<path d="M28.6928 56.525H3.02295L6.87558 26.6214L9.3072 26.934L5.80982 54.0734H25.8447L21.7716 26.9585L24.1909 26.5969L28.6928 56.525Z" fill="#0833C5"/>
<path d="M15.3281 44.4508L28.503 68.5992H2.5697L15.3281 44.4508Z" fill="#0ADBAB"/>
<path d="M28.6928 56.525H3.02295L6.87558 26.6214L9.3072 26.934L5.80982 54.0734H25.8447L21.7716 26.9585L24.1909 26.5969L28.6928 56.525Z" fill="#0833C5"/>
<path d="M15.9222 16.9376C20.0695 16.9376 23.4315 13.5734 23.4315 9.42339C23.4315 5.27341 20.0695 1.90918 15.9222 1.90918C11.775 1.90918 8.41296 5.27341 8.41296 9.42339C8.41296 13.5734 11.775 16.9376 15.9222 16.9376Z" fill="white"/>
<path d="M15.9222 18.1696C11.1019 18.1696 7.18799 14.247 7.18799 9.42956C7.18799 4.61214 11.108 0.689575 15.9222 0.689575C20.7426 0.689575 24.6565 4.61214 24.6565 9.42956C24.6565 14.247 20.7365 18.1696 15.9222 18.1696ZM15.9222 3.13505C12.4555 3.13505 9.63799 5.95441 9.63799 9.42345C9.63799 12.8925 12.4555 15.7118 15.9222 15.7118C19.389 15.7118 22.2065 12.8925 22.2065 9.42345C22.2065 5.95441 19.389 3.13505 15.9222 3.13505Z" fill="#0833C5"/>
<path d="M8.59082 11.0537C14.0543 11.734 17.3863 5.93591 17.3863 5.93591C17.3863 5.93591 19.2789 8.79817 23.4072 8.79817" fill="white"/>
<path d="M9.49712 12.3347C9.15412 12.3347 8.79887 12.3163 8.4375 12.2673L8.73762 9.83402C13.3191 10.4102 16.2959 5.36594 16.3204 5.31691L18.4029 5.25562C18.4641 5.34142 20.026 7.56628 23.4009 7.56628V10.0179C20.565 10.0179 18.6356 8.84113 17.5209 7.87273C16.1795 9.58887 13.4049 12.3347 9.49712 12.3347Z" fill="#0833C5"/>
<path d="M51.6001 37.525H49.1501V56.6721H51.6001V37.525Z" fill="#0833C5"/>
<path d="M48.5378 58.5599H38.0702V61.0116H48.5378V58.5599Z" fill="#0833C5"/>
<path d="M62.4415 58.5599H51.9739V61.0116H62.4415V58.5599Z" fill="#0833C5"/>
<path d="M14.7767 57.947H9.65625V60.3986H14.7767V57.947Z" fill="#0833C5"/>
<path d="M22.3351 57.947H17.2146V60.3986H22.3351V57.947Z" fill="#0833C5"/>
</svg>
