<svg width="55" height="76" viewBox="0 0 55 76" fill="none" xmlns="http://www.w3.org/2000/svg">
    <path d="M15.6979 75.2212L27.0537 55.7247L38.7279 75.2212" fill="#0ADBAB"/>
    <path d="M53.4401 75.5583H1.26124C0.826368 75.5583 0.42213 75.3254 0.201631 74.9515C-0.0188693 74.5777 -0.0250062 74.1119 0.189369 73.7319L25.8776 27.9235L22.907 22.6525L25.0385 21.4512L27.2741 25.4228L29.571 21.3225L31.7086 22.5238L28.6829 27.9235L54.4997 73.7319C54.7141 74.1119 54.708 74.5777 54.4875 74.9515C54.2731 75.3315 53.8749 75.5583 53.4401 75.5583ZM3.34989 73.1067H51.3392L27.2864 30.4241L3.34989 73.1067Z" fill="#0833C5"/>
    <path d="M28.5725 18.0188H26.1226V27.8069H28.5725V18.0188Z" fill="#0833C5"/>
    <path d="M34.5505 40.0466H19.8015V42.4983H34.5505V40.0466Z" fill="#0833C5"/>
    <path d="M41.0431 51.655H13.2908V54.1067H41.0431V51.655Z" fill="#0833C5"/>
    <path d="M45.7348 27.6292H43.2848C43.2848 18.8402 36.1369 11.6876 27.3537 11.6876C18.5704 11.6876 11.4225 18.8402 11.4225 27.6292H8.97253C8.97253 17.4857 17.2168 9.23596 27.3537 9.23596C37.4905 9.23596 45.7348 17.4857 45.7348 27.6292Z" fill="#DFF900"/>
    <path d="M28.5787 0.64917H26.1288V6.91919H28.5787V0.64917Z" fill="#DFF900"/>
    <path d="M18.1466 2.09963L15.8466 2.94421L18.0051 8.83049L20.3052 7.98591L18.1466 2.09963Z" fill="#DFF900"/>
    <path d="M36.35 2.05892L34.1914 7.94519L36.4914 8.78977L38.65 2.9035L36.35 2.05892Z" fill="#DFF900"/>
    <path d="M54.4385 25.6128H48.1726V28.0644H54.4385V25.6128Z" fill="#DFF900"/>
    <path d="M6.59625 25.6128H0.330322V28.0644H6.59625V25.6128Z" fill="#DFF900"/>
    <path d="M8.84595 7.38219L7.11353 9.11572L11.5399 13.5449L13.2723 11.8114L8.84595 7.38219Z" fill="#DFF900"/>
    <path d="M45.0933 7.38416L40.667 11.8134L42.3994 13.5469L46.8257 9.11769L45.0933 7.38416Z" fill="#DFF900"/>
    <path d="M51.7558 15.1224L46.0884 17.7965L47.1333 20.014L52.8007 17.3398L51.7558 15.1224Z" fill="#DFF900"/>
    <path d="M2.92798 15.1338L1.8833 17.3513L7.55078 20.0248L8.59546 17.8074L2.92798 15.1338Z" fill="#DFF900"/>
</svg>
