<svg width="68" height="50" viewBox="0 0 68 50" fill="none" xmlns="http://www.w3.org/2000/svg">
<path d="M36.4888 49.713L18.6396 31.8413L49.682 0.759766L67.5311 18.6314L36.4888 49.713ZM21.4136 31.8413L36.4888 46.9356L64.7621 18.6265L49.6869 3.53227L21.4136 31.8413Z" fill="#0833C5"/>
<path d="M43.0856 34.4126C48.1499 34.4126 52.2552 30.3021 52.2552 25.2315C52.2552 20.1608 48.1499 16.0503 43.0856 16.0503C38.0214 16.0503 33.916 20.1608 33.916 25.2315C33.916 30.3021 38.0214 34.4126 43.0856 34.4126Z" fill="#0ADBAB"/>
<path d="M42.5023 31.12L42.1985 29.3486C43.4482 29.2112 44.448 28.8677 45.1979 28.3083L42.963 26.0706C41.8799 26.7086 40.9684 27.0373 40.2234 27.0717C39.4785 27.1011 38.7875 26.7969 38.1503 26.1639C37.5377 25.5505 37.2633 24.8242 37.3172 23.9753C37.3711 23.1264 37.7338 22.3118 38.4003 21.5316L37.7436 20.874L38.6698 19.9466L39.3511 20.6286C40.2528 19.922 41.2722 19.4853 42.4141 19.3234L42.8405 21.0408C41.973 21.1684 41.2134 21.4432 40.5714 21.8702L42.7327 24.0342C43.8207 23.3815 44.7519 23.0429 45.5115 23.0282C46.2712 23.0086 46.9671 23.3079 47.5846 23.9311C48.2021 24.5494 48.4815 25.2855 48.4227 26.1344C48.3638 26.9833 48.0012 27.8126 47.3297 28.6223L48.4619 29.7559L47.5356 30.6833L46.3888 29.535C45.2518 30.433 43.9579 30.963 42.5023 31.12ZM39.4442 24.7457C39.6941 24.996 39.9735 25.1236 40.292 25.1285C40.6057 25.1334 41.037 24.9862 41.581 24.6966L39.5765 22.6896C39.2481 23.0675 39.0815 23.4404 39.0668 23.8035C39.0521 24.1618 39.1795 24.4807 39.4442 24.7457ZM46.1486 27.4495C46.477 27.0668 46.6534 26.6889 46.6779 26.3209C46.6975 25.9479 46.5652 25.6192 46.2809 25.3346C46.0163 25.0696 45.7222 24.9371 45.3988 24.9371C45.0753 24.9371 44.6342 25.0843 44.0853 25.3836L46.1486 27.4495Z" fill="#0833C5"/>
<path d="M60.4394 24.3433C58.9152 22.8172 58.0723 20.7857 58.0723 18.6266C58.0723 16.4674 58.9103 14.4359 60.4394 12.9098L61.8263 14.2985C60.6697 15.4566 60.0375 16.9925 60.0375 18.6266C60.0375 20.2606 60.6746 21.7965 61.8263 22.9546L60.4394 24.3433Z" fill="#0833C5"/>
<path d="M49.6871 10.2256C47.6189 10.2256 45.5507 9.43557 43.9775 7.86039L45.3645 6.47168C47.7463 8.85653 51.6279 8.85653 54.0097 6.47168L55.3967 7.86039C53.8186 9.43557 51.7504 10.2256 49.6871 10.2256Z" fill="#0833C5"/>
<path d="M25.677 37.617L24.29 36.2283C26.6719 33.8435 26.6719 29.957 24.29 27.5722L25.677 26.1835C28.8234 29.3338 28.8234 34.4617 25.677 37.617Z" fill="#0833C5"/>
<path d="M40.7529 44.0552C38.371 41.6703 34.4895 41.6703 32.1077 44.0552L30.7207 42.6665C33.8671 39.5161 38.9885 39.5161 42.1398 42.6665L40.7529 44.0552Z" fill="#0833C5"/>
<path d="M26.9618 49.0162L9.80859 31.8413L40.1599 1.45166L41.5469 2.83546L12.5825 31.8413L28.3487 47.6275L26.9618 49.0162Z" fill="#0833C5"/>
<path d="M17.8163 49.0162L0.663086 31.8413L31.0144 1.45166L32.3965 2.83546L3.4321 31.8413L19.2032 47.6275L17.8163 49.0162Z" fill="#0833C5"/>
</svg>
