<svg width="77" height="86" viewBox="0 0 77 86" fill="none" xmlns="http://www.w3.org/2000/svg">
    <path d="M0.966797 28.4603C1.59901 27.1109 2.40767 25.5995 1.85386 23.7642C1.78035 23.514 1.79996 23.2343 1.74115 22.9791C1.63823 22.5571 1.599 22.0615 1.34905 21.7425C0.917772 21.1929 0.937381 20.7267 1.23144 20.1526C2.01558 18.6069 3.32413 17.3507 3.7162 15.589C3.77011 15.3486 4.02988 15.1572 4.19651 14.9462C4.52487 14.5242 4.84832 14.0923 5.19138 13.6801C5.39722 13.425 5.59326 13.1305 5.86281 12.9637C6.60775 12.4975 7.45562 12.1688 8.14175 11.6339C8.80337 11.1137 9.34246 10.5003 9.0239 9.42078C8.70534 8.34122 9.82765 6.41273 10.9206 6.01034C12.136 5.5638 12.7731 4.75413 13.0427 3.53717C13.1113 3.22311 13.4053 2.95322 13.6994 2.51158C14.214 3.52735 14.8854 3.75798 15.7676 3.62059C16.189 3.55679 16.6448 3.71382 17.081 3.71382C17.4486 3.71382 17.8651 3.71873 18.1739 3.55189C18.9924 3.11025 19.7128 2.3889 20.5754 2.13374C21.9525 1.72645 23.4081 1.55961 24.844 1.37314C25.8144 1.24555 26.8093 1.18666 27.7895 1.23574C28.657 1.27499 29.4754 1.37804 30.2596 0.838262C30.4262 0.725398 30.8281 0.906963 31.1025 1.0051C31.3819 1.10815 31.6318 1.2799 32.0043 1.48109C31.9994 1.486 31.8279 1.6921 31.769 1.92273C31.6955 2.20734 31.5779 2.6588 31.7151 2.78638C32.4846 3.50282 32.0533 4.00334 31.4995 4.50877C30.7595 5.19086 30.8036 5.36261 31.7053 5.72082C32.1219 5.88276 32.4503 6.29495 32.8669 6.42254C33.9696 6.75131 35.1066 6.97704 36.2191 7.27147C36.4249 7.32545 36.7288 7.48738 36.7631 7.64441C36.9542 8.64546 37.6404 8.80739 38.5029 8.9497C39.1547 9.05765 39.7379 9.54345 40.38 9.76918C40.7524 9.90167 41.2964 10.0145 41.5709 9.84279C41.8551 9.66123 42.11 9.06256 42.0218 8.7436C41.7767 7.87504 42.1247 7.38924 42.8255 7.06046C43.6636 6.6679 44.5114 6.38819 45.3495 7.11935C45.6337 7.36961 45.9719 7.61987 46.3248 7.72783C48.1234 8.26761 49.9318 8.77304 51.7501 9.24903C52.0147 9.31773 52.3774 9.26866 52.6176 9.13126C53.5242 8.61601 54.3035 8.194 55.416 8.89572C55.9747 9.24412 56.9352 8.9546 57.6802 8.9546C58.631 10.3384 58.4594 11.7418 57.6214 13.3759C57.0676 12.6153 56.5775 11.9479 56.0874 11.2806C56.0384 11.3002 55.9845 11.3198 55.9355 11.3345C56.0776 11.6928 56.1903 12.0706 56.3667 12.4092C57.293 14.215 58.4594 15.9423 59.0819 17.8463C59.3857 18.7688 59.7876 19.338 60.3757 20.0152C60.8217 20.5304 60.9491 21.4088 61.0079 22.1449C61.0912 23.2294 61.3118 24.093 62.2871 24.7898C62.7722 25.1333 63.0761 25.943 63.1643 26.5858C63.2917 27.4593 63.8309 27.9304 64.4092 28.4162C65.4678 29.3093 66.5803 30.1484 67.5948 31.0905C67.781 31.2623 67.5947 31.8315 67.58 32.2143C67.482 32.2143 67.384 32.2143 67.2811 32.2143C67.3448 32.2388 67.433 32.2437 67.4624 32.2879C68.8886 34.2458 70.5892 33.2006 72.2751 32.7835C73.618 32.4547 75.0098 32.2977 76.4409 32.0572C76.5291 33.2938 76.2106 34.5451 75.4901 35.7179C74.2208 37.7789 73.3729 40.1294 71.4812 41.7537C70.4618 42.632 69.2807 43.3288 68.2907 44.2268C66.9674 45.4291 65.6197 46.6509 64.5317 48.0593C63.7573 49.0652 63.3898 50.3852 62.8752 51.5777C62.8066 51.7347 62.8605 52.088 62.9683 52.1469C63.8063 52.5934 63.4094 53.3835 63.4535 53.9969C63.527 54.9832 63.6201 55.8861 64.468 56.5486C64.6248 56.6712 64.7081 56.9608 64.7228 57.1767C64.8257 58.5458 64.8845 59.9197 64.9875 61.2888C65.0561 62.1868 63.9926 63.7767 62.8311 64.1055C60.905 64.6551 59.9591 66.4216 58.4349 67.457C58.2977 67.5503 58.3663 68.0164 58.4104 68.2962C58.6212 69.5327 58.9348 70.7595 59.0328 72.0059C59.0622 72.4083 58.6114 72.9285 58.2536 73.2474C57.9351 73.5271 57.4204 73.5762 57.0186 73.7725C56.4011 74.0718 55.9747 74.2828 56.1756 75.2888C56.3913 76.3585 56.1854 77.6589 55.0631 78.4637C54.7887 78.66 54.5975 78.974 54.3819 79.2439C53.387 80.5197 52.4558 81.8545 51.3874 83.0665C49.8142 84.8478 47.6921 85.1128 45.4475 85.0981C44.4869 85.0932 43.5215 85.4219 42.5658 85.628C42.2521 85.6967 41.8502 86.0451 41.6738 85.947C41.1543 85.6477 40.5662 85.2698 40.3162 84.7693C40.0565 84.2491 39.3312 83.6652 40.081 82.8948C40.2427 82.7279 40.0173 82.0998 39.8654 81.7318C39.4831 80.8044 39.0518 79.8965 38.6107 78.9985C38.4294 78.6305 38.155 78.3066 37.9491 77.9484C37.4835 77.1191 36.8415 76.3291 36.6161 75.436C36.2436 73.9442 36.1407 72.3887 35.925 70.8577C35.9005 70.6908 35.8809 70.5093 35.8025 70.362C35.038 68.9586 34.3812 67.4767 33.455 66.191C32.6561 65.0771 32.862 63.9337 32.9453 62.7953C33.0041 61.9954 33.3766 61.2054 33.6804 60.4399C33.8666 59.9688 34.1019 59.4388 34.4744 59.1395C35.3614 58.4182 35.283 57.584 34.9203 56.7105C34.6214 55.999 34.1705 55.4396 34.5773 54.5219C34.7684 54.0901 34.1852 53.3295 33.9843 52.7063C33.3373 50.7091 32.0876 49.1585 30.5879 47.7256C29.9655 47.1318 29.5293 46.386 30.0831 45.277C30.5781 44.2857 30.6271 43.054 30.7644 41.9107C30.8771 40.9685 29.6813 39.9626 28.7305 40.0951C28.3188 40.1539 27.8973 40.1736 27.4955 40.257C26.6231 40.4435 26.0546 40.2472 25.7605 39.2854C25.4371 38.2402 24.5843 37.985 23.5306 38.0144C21.6094 38.0635 19.9824 39.0106 18.2229 39.57C17.8897 39.678 17.4731 39.7516 17.1545 39.6534C15.5862 39.1725 14.0277 39.2216 12.582 39.9184C11.4303 40.4729 10.5873 40.0803 9.70514 39.4669C8.51912 38.6376 7.3135 37.828 6.15688 36.9594C5.79911 36.6895 5.3433 36.2479 5.3335 35.875C5.28449 34.3979 3.98086 33.9317 3.26042 32.9994C2.81934 32.4302 2.29004 32.0131 1.72643 31.5861C1.46178 31.385 1.37847 30.8942 1.29515 30.5213C1.14322 29.9128 1.08442 29.2798 0.966797 28.4603Z" fill="#F2F2F2"/>
    <path d="M74.4711 58.7224C75.5738 59.7823 75.3239 61.3428 75.7356 62.7168C75.6424 62.761 75.5493 62.8051 75.4562 62.8444C75.2945 62.7217 75.1328 62.599 74.971 62.4813C74.9269 62.5303 74.8534 62.5696 74.8485 62.6187C74.6819 63.7865 74.6476 64.9888 74.3388 66.1125C73.7066 68.3845 72.9371 70.6172 72.202 72.8549C71.9962 73.4781 70.5112 74.327 69.8839 74.2338C68.9576 74.0964 68.1931 73.1984 68.1539 72.1826C68.149 72.0108 68.2715 71.7851 68.1931 71.6772C67.2864 70.3964 67.9382 69.3855 68.6146 68.2716C68.9037 67.7956 68.9086 67.035 68.8008 66.4462C68.6293 65.5188 68.2372 64.6257 68.9625 63.7816C69.2125 63.4921 69.4722 63.1241 69.8055 62.9965C71.1483 62.4862 72.5108 62.1525 72.947 60.4154C73.1087 59.7971 73.9124 59.3211 74.4711 58.7224Z" fill="#F2F2F2"/>
    <path d="M29.4731 51.2069C35.7243 51.2069 40.792 46.1354 40.792 39.8793C40.792 33.6233 35.7243 28.5518 29.4731 28.5518C23.2219 28.5518 18.1543 33.6233 18.1543 39.8793C18.1543 46.1354 23.2219 51.2069 29.4731 51.2069Z" fill="#0ADBAB"/>
    <path d="M29.3969 46.8031C26.5642 46.8031 24.2656 44.4967 24.2656 41.6653C24.2656 38.8339 26.5691 36.5276 29.3969 36.5276C32.2247 36.5276 34.5281 38.8339 34.5281 41.6653C34.5281 44.4967 32.2296 46.8031 29.3969 46.8031ZM29.3969 38.4855C27.6473 38.4855 26.226 39.9086 26.226 41.6604C26.226 43.4122 27.6473 44.8353 29.3969 44.8353C31.1465 44.8353 32.5678 43.4122 32.5678 41.6604C32.5727 39.9086 31.1465 38.4855 29.3969 38.4855Z" fill="#0833C5"/>
    <path d="M23.6974 34.8297C20.8647 34.8297 18.5662 32.5233 18.5662 29.6919C18.5662 26.8605 20.8696 24.5542 23.6974 24.5542C26.5253 24.5542 28.8287 26.8605 28.8287 29.6919C28.8287 32.5233 26.5253 34.8297 23.6974 34.8297ZM23.6974 26.5121C21.9478 26.5121 20.5265 27.9352 20.5265 29.687C20.5265 31.4389 21.9478 32.8619 23.6974 32.8619C25.4471 32.8619 26.8683 31.4389 26.8683 29.687C26.8683 27.9352 25.4471 26.5121 23.6974 26.5121Z" fill="#0833C5"/>
    <path d="M36.0571 34.8297C33.2243 34.8297 30.9258 32.5233 30.9258 29.6919C30.9258 26.8605 33.2292 24.5542 36.0571 24.5542C38.8849 24.5542 41.1884 26.8605 41.1884 29.6919C41.1884 32.5233 38.8898 34.8297 36.0571 34.8297ZM36.0571 26.5121C34.3074 26.5121 32.8862 27.9352 32.8862 29.687C32.8862 31.4389 34.3074 32.8619 36.0571 32.8619C37.8067 32.8619 39.228 31.4389 39.228 29.687C39.2329 27.9352 37.8067 26.5121 36.0571 26.5121Z" fill="#0833C5"/>
    <path d="M37.6258 59.0561H35.6655V53.2854C35.6655 49.7081 32.7592 46.7982 29.1865 46.7982C25.6137 46.7982 22.7074 49.7081 22.7074 53.2854V59.0512H20.7471V53.2854C20.7471 48.6285 24.5306 44.8353 29.1865 44.8353C33.8423 44.8353 37.6258 48.6236 37.6258 53.2854V59.0561Z" fill="#0833C5"/>
    <path d="M23.3985 62.1082C21.938 62.1082 20.7471 60.9158 20.7471 59.4535V53.4177H22.7074V59.4535C22.7074 59.8362 23.0162 60.1454 23.3985 60.1454C23.7807 60.1454 24.0895 59.8362 24.0895 59.4535V53.4177H26.0498V59.4535C26.0498 60.9207 24.8638 62.1082 23.3985 62.1082Z" fill="#0833C5"/>
    <path d="M34.9747 62.1082C33.5142 62.1082 32.3232 60.9158 32.3232 59.4535V53.4177H34.2836V59.4535C34.2836 59.8362 34.5924 60.1454 34.9747 60.1454C35.3569 60.1454 35.6657 59.8362 35.6657 59.4535V53.4177H37.626V59.4535C37.626 60.9207 36.4351 62.1082 34.9747 62.1082Z" fill="#0833C5"/>
    <path d="M26.0492 54.8064H24.0889V68.8898H26.0492V54.8064Z" fill="#0833C5"/>
    <path d="M34.2836 54.8064H32.3232V68.8898H34.2836V54.8064Z" fill="#0833C5"/>
    <path d="M42.4086 44.374C39.5759 44.374 37.2773 42.0676 37.2773 39.2362C37.2773 36.4048 39.5808 34.0985 42.4086 34.0985C45.2364 34.0985 47.5398 36.4048 47.5398 39.2362C47.5398 42.0676 45.2364 44.374 42.4086 44.374ZM42.4086 36.0564C40.6589 36.0564 39.2377 37.4795 39.2377 39.2313C39.2377 40.9832 40.6589 42.4062 42.4086 42.4062C44.1582 42.4062 45.5794 40.9832 45.5794 39.2313C45.5794 37.4795 44.1582 36.0564 42.4086 36.0564Z" fill="#0833C5"/>
    <path d="M50.6327 56.627H48.6724V50.8612C48.6724 47.2839 45.7661 44.374 42.1934 44.374V42.4111C46.8443 42.4111 50.6327 46.1994 50.6327 50.8612V56.627Z" fill="#0833C5"/>
    <path d="M47.9814 59.6792C46.521 59.6792 45.3301 58.4868 45.3301 57.0245V50.9888H47.2904V57.0245C47.2904 57.3974 47.609 57.7164 47.9814 57.7164C48.3539 57.7164 48.6725 57.3974 48.6725 57.0245V50.9888H50.6328V57.0245C50.6328 58.4917 49.4419 59.6792 47.9814 59.6792Z" fill="#0833C5"/>
    <path d="M47.2904 52.3774H45.3301V63.914H47.2904V52.3774Z" fill="#0833C5"/>
    <path d="M16.5961 44.374C13.7634 44.374 11.4648 42.0676 11.4648 39.2362C11.4648 36.4048 13.7683 34.0985 16.5961 34.0985C19.4239 34.0985 21.7273 36.4048 21.7273 39.2362C21.7273 42.0676 19.4239 44.374 16.5961 44.374ZM16.5961 36.0564C14.8465 36.0564 13.4252 37.4795 13.4252 39.2313C13.4252 40.9832 14.8465 42.4062 16.5961 42.4062C18.3457 42.4062 19.7669 40.9832 19.7669 39.2313C19.7669 37.4795 18.3457 36.0564 16.5961 36.0564Z" fill="#0833C5"/>
    <path d="M10.3324 56.627H8.37207V50.8612C8.37207 46.2043 12.1556 42.4111 16.8114 42.4111V44.374C13.2387 44.374 10.3324 47.2839 10.3324 50.8612V56.627Z" fill="#0833C5"/>
    <path d="M11.0235 59.6792C9.563 59.6792 8.37207 58.4868 8.37207 57.0245V50.9888H10.3324V57.0245C10.3324 57.3974 10.651 57.7164 11.0235 57.7164C11.3959 57.7164 11.7145 57.3974 11.7145 57.0245V50.9888H13.6748V57.0245C13.6699 58.4917 12.4839 59.6792 11.0235 59.6792Z" fill="#0833C5"/>
    <path d="M13.6703 52.3774H11.71V63.914H13.6703V52.3774Z" fill="#0833C5"/>
</svg>
