<svg width="66" height="72" viewBox="0 0 66 72" fill="none" xmlns="http://www.w3.org/2000/svg">
<path d="M24.2467 34.544L24.1793 34.6114L24.1119 34.544C23.2911 33.7227 22.207 33.312 21.129 33.312C20.051 33.312 18.9669 33.7227 18.1462 34.544C16.5047 36.1865 16.5047 38.871 18.1462 40.5136L18.2135 40.581L24.1793 46.5507L30.145 40.581L30.2124 40.5136C31.0331 39.6923 31.4435 38.6136 31.4435 37.5288C31.4435 36.444 31.0331 35.3591 30.2124 34.544C28.5709 32.9014 25.882 32.9014 24.2467 34.544Z" fill="#0ADBAB"/>
<path d="M23.6709 24.0266C21.6864 22.4391 18.6973 18.1733 21.5455 13.3804C24.4242 8.53849 30.1572 0.411377 36.1842 0.411377C42.2051 0.411377 48.4281 11.7133 48.4281 14.7411C48.4281 17.303 48.4281 19.9569 44.453 23.383L42.8544 21.5259C45.9781 18.8291 45.9781 17.113 45.9781 14.7349C45.9781 12.6817 40.4595 2.85686 36.1842 2.85686C32.7175 2.85686 28.0319 7.25751 23.6525 14.6307C21.1902 18.774 25.0367 21.9795 25.2021 22.1143L23.6709 24.0266Z" fill="#0833C5"/>
<path d="M27.156 17.542L25.6309 15.6175L34.3467 8.68555L43.0075 14.7165L41.6048 16.7268L34.4447 11.7378L27.156 17.542Z" fill="#0833C5"/>
<path d="M23.2301 56.5962C20.7311 56.5962 18.8018 55.6524 15.3779 53.0782C9.96343 49.0146 12.6216 36.2111 14.2019 28.5559L14.2999 28.084C15.8802 20.4288 21.1783 18.1856 21.4049 18.0936L22.3298 20.3614L21.8643 19.2275L22.3359 20.3614C22.1583 20.4349 18.0055 22.2614 16.7009 28.5804L16.6029 29.0523C15.2309 35.6717 12.6829 47.9849 16.8479 51.1107C21.4539 54.5675 22.391 54.6227 27.5973 53.4643C32.9015 52.2814 40.7231 48.5795 40.8027 48.5366L41.8563 50.7491C41.5255 50.9085 33.71 54.6104 28.1301 55.8546C26.1089 56.3204 24.5838 56.5962 23.2301 56.5962Z" fill="#0833C5"/>
<path d="M56.3845 51.5582C56.36 51.3314 53.9345 28.9543 53.2178 24.5046C52.7095 21.3604 48.3852 19.0743 46.7621 18.4552L47.6318 16.163C47.9258 16.2733 54.7981 18.9394 55.6311 24.1123C56.36 28.6233 58.7181 50.3691 58.8161 51.2946L56.3845 51.5582Z" fill="#0833C5"/>
<path d="M39.3693 47.0839C33.9854 41.8191 27.9584 27.0972 27.7073 26.472L29.9797 25.5465C30.0409 25.6936 36.0618 40.4217 41.0843 45.3249L39.3693 47.0839Z" fill="#0833C5"/>
<path d="M41.7764 48.1197L41.0292 47.85C34.3223 45.4107 22.8073 39.9681 22.3173 39.7352L23.3647 37.5165C23.481 37.5716 34.4264 42.7446 41.1272 45.2697C44.6613 41.6904 47.2216 39.8026 47.3318 39.7229L48.7834 41.6965C48.7589 41.7149 45.9966 43.762 42.3277 47.5497L41.7764 48.1197Z" fill="#0833C5"/>
<path d="M37.4277 29.132L36.1537 27.0359C38.9221 25.3504 40.6494 24.2533 40.6677 24.2411L41.9785 26.3127C41.9662 26.325 40.2206 27.4282 37.4277 29.132Z" fill="#0833C5"/>
<path d="M34.347 23.4444C29.2448 23.4444 27.7136 17.7076 27.6156 14.6737L30.0656 14.594L28.8406 14.6308L30.0656 14.5879C30.0656 14.6492 30.3412 20.9927 34.347 20.9927C38.4078 20.9927 38.9958 14.2447 39.002 14.1772L41.4459 14.3672C41.4152 14.735 40.6741 23.4444 34.347 23.4444Z" fill="#0833C5"/>
<path d="M21.4291 68.1127C21.3556 68.1004 14.2384 67.132 8.16855 65.7898C4.64055 65.0114 2.17217 63.3933 1.03904 61.1256C-0.0144544 59.0172 0.114156 56.4001 1.40653 53.5501C4.1934 47.4211 14.0608 48.4753 14.4773 48.5243L14.2017 50.9575C14.1159 50.9453 5.68179 50.0504 3.63604 54.5614C2.64379 56.7433 2.50905 58.582 3.2318 60.0224C4.02193 61.6098 5.91454 62.7743 8.69529 63.3872C14.661 64.7049 21.6803 65.6611 21.7538 65.6733L21.4291 68.1127Z" fill="#0833C5"/>
<path d="M12.3837 55.3509L11.5178 57.6444L17.0243 59.7259L17.8901 57.4325L12.3837 55.3509Z" fill="#0833C5"/>
<path d="M50.2902 66.0534L49.99 63.6202C58.4977 62.566 61.5602 60.4514 62.632 58.8701C63.5324 57.5401 63.3364 56.1672 63.0302 55.0027C62.8771 54.4266 62.5279 53.9976 61.9338 53.6605C57.6708 51.2456 44.8879 54.9905 39.4305 56.5901C38.4628 56.8721 37.6665 57.105 37.1091 57.2521L36.4844 54.8801C37.0295 54.7392 37.8013 54.5124 38.7445 54.2366C48.7344 51.313 58.6018 48.9595 63.1466 51.5275C64.3226 52.1956 65.0821 53.1517 65.4067 54.3775C65.7926 55.8546 66.1356 58.0672 64.6656 60.243C62.6566 63.2034 57.9587 65.1034 50.2902 66.0534Z" fill="#0833C5"/>
<path d="M58.7602 53.8614L51.1089 55.8594L51.7275 58.2316L59.3788 56.2336L58.7602 53.8614Z" fill="#0833C5"/>
<path d="M44.5285 30.0589L42.2463 30.9503L44.6939 37.2247L46.976 36.3333L44.5285 30.0589Z" fill="#0833C5"/>
<path d="M35.4491 66.2556C34.169 66.2556 22.948 66.1392 22.948 62.0879C22.948 58.0366 34.169 57.9202 35.4491 57.9202C36.7293 57.9202 47.9503 58.0366 47.9503 62.0879C47.9503 66.1392 36.7293 66.2556 35.4491 66.2556ZM25.5327 62.0879C26.4147 62.7805 30.0162 63.804 35.4553 63.804C40.8943 63.804 44.4958 62.7805 45.3778 62.0879C44.4958 61.3953 40.8943 60.3718 35.4553 60.3718C30.0162 60.3718 26.4086 61.3953 25.5327 62.0879Z" fill="#0833C5"/>
<path d="M35.4491 71.7595C28.5585 71.7595 22.948 67.6714 22.948 62.6517H25.398C25.398 66.323 29.906 69.3079 35.4491 69.3079C40.9923 69.3079 45.5003 66.323 45.5003 62.6517H47.9503C47.9503 67.6714 42.3398 71.7595 35.4491 71.7595Z" fill="#0833C5"/>
</svg>
