<svg width="65" height="70" viewBox="0 0 65 70" fill="none" xmlns="http://www.w3.org/2000/svg">
<path d="M19.2405 24.6385C16.1045 24.6385 12.9624 23.4433 10.5736 21.053C8.25837 18.7362 6.98438 15.6594 6.98438 12.3804C6.98438 9.10748 8.25837 6.02458 10.5736 3.7078C15.3511 -1.07285 23.1238 -1.07285 27.9013 3.7078C32.6788 8.48845 32.6788 16.2662 27.9013 21.0468C25.5126 23.4433 22.3765 24.6385 19.2405 24.6385ZM19.2405 2.58006C16.7293 2.58006 14.218 3.53619 12.307 5.44845C10.4573 7.29942 9.43438 9.76329 9.43438 12.3865C9.43438 15.0036 10.4573 17.4675 12.307 19.3246C16.129 23.1491 22.3459 23.1491 26.1679 19.3246C29.9899 15.5001 29.9899 9.2791 26.1679 5.45458C24.263 3.53619 21.7518 2.58006 19.2405 2.58006Z" fill="#DFF900"/>
<path d="M10.5789 19.3311L0.958374 28.9465L2.69181 30.679L12.3124 21.0636L10.5789 19.3311Z" fill="#DFF900"/>
<path d="M3.07231 21.3278L1.33887 23.0603L8.59334 30.3108L10.3268 28.5783L3.07231 21.3278Z" fill="#DFF900"/>
<path d="M35.8881 69.5029C22.7438 69.5029 12.8826 66.3281 12.2211 66.1075L12.9867 63.7784C13.2439 63.8642 38.4116 71.9484 61.7601 62.1174C61.3129 59.1816 58.2137 58.44 53.3933 57.5329C48.3341 56.5829 42.0314 55.4 42.0314 48.5723H44.4814C44.4814 53.0403 48.0217 54.0271 53.8466 55.1242C58.7282 56.0436 64.2652 57.0855 64.2652 62.8958V63.6987L63.5302 64.0175C54.0058 68.2097 44.2793 69.5029 35.8881 69.5029Z" fill="#0833C5"/>
<path d="M13.1154 58.8078C12.656 58.8078 12.2089 58.8017 11.774 58.7894L11.1921 56.5033C15.0448 54.2723 15.0448 49.2158 15.0448 46.4946V21.7026C15.0448 9.0829 24.4099 2.48193 33.6587 2.48193C37.7624 2.48193 43.324 4.25323 45.97 9.19323C48.4077 9.29743 50.5147 10.2045 52.242 11.89C56.8847 16.4132 57.2461 25.0429 57.2461 27.5865V50.1536H54.7961V27.5865C54.7961 22.8549 53.6752 16.7136 50.5331 13.649C49.0876 12.2394 47.3542 11.5774 45.235 11.6387L44.0835 10.9155C42.0867 6.50258 37.2173 4.93355 33.6525 4.93355C25.6165 4.93355 17.4887 10.6948 17.4887 21.7026V46.4946C17.4887 48.8297 17.4886 53.1384 15.0509 56.3133C20.3551 56.0804 24.3364 54.8791 26.425 52.8381C27.5643 51.7226 28.1217 50.3926 28.1217 48.7623H30.5717C30.5717 51.0546 29.7509 53.0158 28.1339 54.591C24.6488 58.011 18.2849 58.8078 13.1154 58.8078Z" fill="#0833C5"/>
<path d="M20.3551 33.1149L19.4241 30.8472C33.2482 25.1656 39.1466 16.2724 39.2017 16.1804L41.2598 17.5104C41.0086 17.9027 34.9326 27.1207 20.3551 33.1149Z" fill="#0833C5"/>
<path d="M36.905 52.5011C30.2165 52.5011 22.2417 48.6459 22.2417 30.2894H24.6917C24.6917 43.3994 28.8016 50.0495 36.905 50.0495C44.7327 50.0495 47.3665 36.4798 47.3665 30.2894H49.8165C49.8165 36.0507 47.4461 52.5011 36.905 52.5011Z" fill="#0833C5"/>
<path d="M48.9895 23.2655C48.671 23.1981 41.1004 21.4759 36.8313 15.69L38.8036 14.2313C42.5153 19.2571 49.4489 20.8507 49.5162 20.8691L48.9895 23.2655Z" fill="#0833C5"/>
<path d="M37.7136 43.9817C37.5054 43.9817 37.3032 43.9572 37.1072 43.9082C35.7781 43.5711 35.1595 42.2104 35.135 42.1553L36.2559 41.6588C36.262 41.6649 36.6662 42.5414 37.4135 42.7253C37.9096 42.8478 38.4915 42.6517 39.1469 42.143L39.8941 43.1114C39.1407 43.6875 38.4119 43.9817 37.7136 43.9817Z" fill="#0833C5"/>
<path d="M43.9549 34.9905C44.7295 34.9905 45.3575 34.0657 45.3575 32.925C45.3575 31.7842 44.7295 30.8595 43.9549 30.8595C43.1802 30.8595 42.5522 31.7842 42.5522 32.925C42.5522 34.0657 43.1802 34.9905 43.9549 34.9905Z" fill="#0833C5"/>
<path d="M45.5168 32.0424C45.3147 31.8524 43.4955 30.2527 41.6213 32.0424L40.776 31.1536C42.981 29.0514 45.3943 30.2343 46.356 31.1536L45.5168 32.0424Z" fill="#0833C5"/>
<path d="M32.9788 34.9905C33.7535 34.9905 34.3815 34.0657 34.3815 32.925C34.3815 31.7842 33.7535 30.8595 32.9788 30.8595C32.2042 30.8595 31.5762 31.7842 31.5762 32.925C31.5762 34.0657 32.2042 34.9905 32.9788 34.9905Z" fill="#0833C5"/>
<path d="M34.5407 32.0424C34.3386 31.8524 32.5256 30.2527 30.6453 32.0424L29.8 31.1536C32.005 29.0514 34.4182 30.2343 35.3798 31.1536L34.5407 32.0424Z" fill="#0833C5"/>
<path d="M29.1813 29.5172L28.2871 28.6775C30.4492 26.373 33.4076 26.8204 34.6694 27.3843L34.1732 28.5059L34.4244 27.9481L34.1794 28.512C34.0569 28.4507 31.2822 27.2739 29.1813 29.5172Z" fill="#0833C5"/>
<path d="M46.0739 29.5907C46.0004 29.4988 44.2058 27.2801 41.5231 28.3772L41.0637 27.2433C43.9057 26.0849 46.2148 27.7826 47.0417 28.8368L46.0739 29.5907Z" fill="#0833C5"/>
<path d="M38.7302 40.0101V38.7843C39.1529 38.7843 39.6 38.6556 39.6919 38.5514C39.6857 38.5453 39.6857 38.5208 39.6673 38.4718C39.2325 37.3072 38.9385 35.9527 38.9262 35.8976L40.1267 35.6401C40.1267 35.6524 40.4146 36.964 40.8188 38.0488C40.9781 38.484 40.9414 38.913 40.7086 39.2501C40.2002 39.9734 38.9752 40.0101 38.7302 40.0101Z" fill="#0833C5"/>
<path d="M40.2308 61.3391C31.129 61.3391 25.8309 55.4308 25.6104 55.1795L27.4479 53.5614L26.5291 54.3704L27.4479 53.5614C27.4969 53.6166 32.2683 58.8937 40.2308 58.8937C44.8001 58.8937 45.3145 55.0875 45.339 54.922L47.7707 55.2162C47.5134 57.3308 45.6024 61.3391 40.2308 61.3391Z" fill="#0833C5"/>
</svg>
